<svg version="1.1" id="Layer_1" xmlns="http://www.w3.org/2000/svg" xmlns:xlink="http://www.w3.org/1999/xlink" x="0px" y="0px"
	 width="100%" viewBox="0 0 211 300" enable-background="new 0 0 211 300" xml:space="preserve">
<path fill="#010101" opacity="1.000000" stroke="none" 
	d="
M1.000000,188.000000 
	C1.000000,125.760811 1.000000,63.521629 1.000000,1.000000 
	C35.020374,1.000000 69.041527,1.000000 103.843765,1.278651 
	C103.758789,3.332220 102.892715,5.107138 101.979118,6.979465 
	C105.492584,10.191382 105.402496,11.271174 101.136444,13.767751 
	C100.015381,14.423818 98.890175,15.072827 97.519333,15.829617 
	C96.832855,16.233627 96.393921,16.533096 95.708740,16.829376 
	C95.462502,16.826185 95.013977,17.029676 94.715233,16.882317 
	C90.468170,13.324860 88.531067,17.298941 85.760834,18.856232 
	C85.370461,18.593250 85.202797,18.505867 84.736458,18.293091 
	C81.289825,21.110033 78.141861,24.052368 74.688187,27.147942 
	C74.135780,28.629934 73.867569,29.955143 73.648148,31.288382 
	C73.403107,32.777309 73.202354,34.273529 72.982330,35.766571 
	C71.667358,34.845295 70.352386,33.924019 69.158401,32.741261 
	C68.878929,31.897137 68.478470,31.314497 67.914886,30.558306 
	C66.809334,30.536592 65.866928,30.688435 64.938416,30.928371 
	C64.952309,31.016468 65.045273,31.168699 64.745331,31.122379 
	C64.243210,31.067905 64.041031,31.059753 63.760666,30.936245 
	C63.579121,30.723577 63.470917,30.630457 63.378674,30.523563 
	C63.367340,30.510424 63.441326,30.423658 63.475769,30.371014 
	C63.318573,30.579599 63.161377,30.788189 62.647858,30.982613 
	C60.170658,32.294792 58.049782,33.621132 55.666595,34.868324 
	C54.561275,35.509109 53.718269,36.229050 52.612091,37.067593 
	C51.895302,37.787056 51.441681,38.387920 50.768356,39.054787 
	C49.972088,39.644184 49.395515,40.167576 48.528400,40.962448 
	C47.743160,42.445072 47.248459,43.656212 46.571030,44.809357 
	C45.580868,45.470917 44.773434,46.190472 43.651970,47.065689 
	C42.125458,49.121796 40.912971,51.022243 39.456764,53.126541 
	C38.806129,56.282887 38.399216,59.235378 37.684032,62.264526 
	C36.549797,63.793491 35.723824,65.245796 34.753960,66.918915 
	C34.712379,67.624321 34.814690,68.108917 34.884663,68.869812 
	C35.235458,69.763451 35.618591,70.380791 36.080956,71.228775 
	C36.343288,71.764847 36.612743,71.924568 36.950829,72.244278 
	C36.927231,72.754013 36.921345,72.958069 36.628422,73.245544 
	C34.258461,77.086861 37.348534,77.801247 39.671585,78.689171 
	C44.289433,80.454247 48.989155,82.005127 53.847626,83.835892 
	C54.168793,84.154671 54.297379,84.282066 54.370087,84.766342 
	C55.503090,88.200218 56.691971,91.277206 57.921730,94.460007 
	C59.541737,93.927567 60.348267,93.745094 61.084408,93.408623 
	C90.455673,79.983582 119.991211,79.080978 149.742020,92.158020 
	C152.692734,93.455017 156.216019,91.192261 156.628632,87.870903 
	C156.785950,86.604515 156.816040,85.322327 157.087814,83.872971 
	C157.523193,83.473099 157.774887,83.247597 158.404648,82.990730 
	C160.852844,82.117043 162.883087,81.152397 165.002533,80.461433 
	C168.081390,79.457687 171.277786,78.802223 174.328491,77.727097 
	C179.478470,75.912155 177.411240,71.546394 177.631134,67.653610 
	C176.745789,65.891464 175.772064,64.455208 174.739838,62.707905 
	C174.059708,61.593445 173.438065,60.790039 172.923248,59.661510 
	C172.740845,58.535133 172.451630,57.733875 172.115967,56.581032 
	C171.376556,54.816887 170.683594,53.404327 170.064117,51.629402 
	C169.137115,49.490559 168.136597,47.714077 167.144135,45.688202 
	C166.771317,44.957577 166.390488,44.476345 165.974121,43.770485 
	C165.837677,43.236309 165.636490,43.020023 165.296295,42.536331 
	C165.254044,41.451149 165.250549,40.726627 165.324234,39.751862 
	C162.266251,36.764362 159.191376,33.949249 155.906021,31.406027 
	C155.564240,31.141449 153.973877,32.489815 152.708344,32.953533 
	C150.955124,32.354355 149.456375,31.891447 147.569366,31.274162 
	C145.794525,31.066055 144.407990,31.012323 142.880890,30.659592 
	C141.150467,29.711773 139.560577,29.062954 137.725357,28.196005 
	C137.179977,27.659380 136.879929,27.340885 136.594116,26.884556 
	C133.704910,22.859823 129.991943,20.314838 124.964005,19.569294 
	C124.636559,19.077196 124.351303,18.990147 123.631256,19.028460 
	C119.503731,17.457737 115.717148,16.034964 112.009888,14.429053 
	C106.827003,12.183928 106.541878,11.016908 109.307289,6.887730 
	C108.434174,4.659729 107.717087,2.829865 107.000000,1.000000 
	C141.946381,1.000000 176.892776,1.000000 212.000000,1.000000 
	C212.000000,61.020798 212.000000,121.041740 211.602219,181.601181 
	C210.723862,180.602036 210.026978,179.096405 209.794022,177.522110 
	C201.813629,123.591072 154.747437,85.162270 100.240059,88.117363 
	C50.353271,90.821953 7.264461,132.800369 3.047478,182.689041 
	C2.894057,184.504074 1.705919,186.231659 1.000000,188.000000 
M70.460602,29.522743 
	C70.460602,29.522743 70.521080,29.498220 70.460602,29.522743 
z"/>
<path fill="#018176" opacity="1.000000" stroke="none" 
	d="
M1.000000,188.463181 
	C1.705919,186.231659 2.894057,184.504074 3.047478,182.689041 
	C7.264461,132.800369 50.353271,90.821953 100.240059,88.117363 
	C154.747437,85.162270 201.813629,123.591072 209.794022,177.522110 
	C210.026978,179.096405 210.723862,180.602036 211.602219,182.069839 
	C212.000000,183.066666 212.000000,184.133347 211.726562,185.460205 
	C211.635406,186.146927 211.817703,186.573471 212.000000,187.000000 
	C212.000000,191.024551 212.000000,195.049088 211.700653,199.627380 
	C211.600876,200.454071 211.800430,200.727036 212.000000,201.000000 
	C212.000000,201.750000 212.000000,202.500000 211.603912,203.566437 
	C210.771088,205.097229 210.104279,206.279922 209.932266,207.530670 
	C207.505020,225.180313 201.423126,241.411423 190.688965,255.675964 
	C166.484146,287.841614 133.947723,302.987335 94.148018,298.262909 
	C44.276390,292.342896 8.880749,254.759033 2.993646,204.670074 
	C2.842767,203.386337 1.687078,202.220703 0.999999,201.000000 
	C1.000000,196.975449 1.000000,192.950912 1.000000,188.463181 
M190.208450,234.314621 
	C210.203018,189.710007 196.749100,139.905121 157.021378,114.644531 
	C127.520653,95.886734 96.566849,94.339661 64.318398,110.045784 
	C46.481457,119.358162 32.904472,132.841034 23.775372,151.654556 
	C8.119205,186.091660 10.528984,219.142868 32.439713,250.066193 
	C58.342766,286.624023 110.894966,298.478943 149.672562,276.841736 
	C167.560532,267.185791 181.236298,253.490891 190.208450,234.314621 
z"/>
<path fill="#010101" opacity="1.000000" stroke="none" 
	d="
M0.999999,201.468658 
	C1.687078,202.220703 2.842767,203.386337 2.993646,204.670074 
	C8.880749,254.759033 44.276390,292.342896 94.148018,298.262909 
	C133.947723,302.987335 166.484146,287.841614 190.688965,255.675964 
	C201.423126,241.411423 207.505020,225.180313 209.932266,207.530670 
	C210.104279,206.279922 210.771088,205.097229 211.603912,203.941437 
	C212.000000,236.298645 212.000000,268.597290 212.000000,300.947968 
	C141.776855,300.947968 71.553650,300.947968 1.000000,300.947968 
	C1.000000,267.979828 1.000000,234.958572 0.999999,201.468658 
z"/>
<path fill="#027C71" opacity="1.000000" stroke="none" 
	d="
M97.766876,15.725077 
	C98.890175,15.072827 100.015381,14.423818 101.136444,13.767751 
	C105.402496,11.271174 105.492584,10.191382 101.979118,6.979465 
	C102.892715,5.107138 103.758789,3.332220 104.312424,1.278651 
	C104.750000,1.000000 105.500000,1.000000 106.625000,1.000000 
	C107.717087,2.829865 108.434174,4.659729 109.307289,6.887730 
	C106.541878,11.016908 106.827003,12.183928 112.009888,14.429053 
	C115.717148,16.034964 119.503731,17.457737 123.517456,19.259605 
	C121.132904,20.317316 118.485825,21.077644 115.227768,22.013464 
	C115.305122,22.258125 115.657776,23.373541 115.585701,24.548824 
	C113.457115,24.752911 111.753273,24.897129 109.749420,24.945885 
	C108.273514,24.882200 107.097618,24.913980 105.718857,24.827374 
	C104.351608,24.739227 103.187210,24.769463 101.620110,24.756634 
	C100.141472,24.633738 99.065552,24.553905 98.001312,24.142553 
	C98.033630,23.147907 98.054260,22.484785 98.318527,21.666885 
	C98.297073,19.583099 98.031975,17.654087 97.766876,15.725077 
z"/>
<path fill="#010101" opacity="1.000000" stroke="none" 
	d="
M212.000000,200.750000 
	C211.800430,200.727036 211.600876,200.454071 211.700653,200.090546 
	C212.000000,200.000000 212.000000,200.500000 212.000000,200.750000 
z"/>
<path fill="#010101" opacity="1.000000" stroke="none" 
	d="
M212.000000,186.750000 
	C211.817703,186.573471 211.635406,186.146927 211.726562,185.860199 
	C212.000000,186.000000 212.000000,186.500000 212.000000,186.750000 
z"/>
<path fill="#027C71" opacity="1.000000" stroke="none" 
	d="
M156.904114,84.047340 
	C156.816040,85.322327 156.785950,86.604515 156.628632,87.870903 
	C156.216019,91.192261 152.692734,93.455017 149.742020,92.158020 
	C119.991211,79.080978 90.455673,79.983582 61.084408,93.408623 
	C60.348267,93.745094 59.541737,93.927567 57.921730,94.460007 
	C56.691971,91.277206 55.503090,88.200218 54.618317,84.596756 
	C54.919964,83.820526 54.917507,83.570778 54.915047,83.321022 
	C54.495052,83.428856 54.075050,83.536682 53.655048,83.644508 
	C48.989155,82.005127 44.289433,80.454247 39.671585,78.689171 
	C37.348534,77.801247 34.258461,77.086861 36.671227,73.602066 
	C40.103855,78.145859 41.264580,78.163010 45.541016,74.028809 
	C46.456856,74.104919 46.980251,74.147736 47.414177,74.472404 
	C48.053436,75.795204 48.782162,76.836151 49.510887,77.877106 
	C50.402210,76.750320 51.293530,75.623543 52.113613,74.090134 
	C51.506424,70.524139 50.472469,67.253372 54.321037,65.144760 
	C56.113556,65.520103 57.569733,65.750122 59.012138,65.990891 
	C58.998371,66.001633 59.017189,65.972168 59.049149,66.291756 
	C59.732372,67.408653 60.383636,68.205971 61.014671,69.004814 
	C60.994442,69.006348 60.994061,68.965775 61.157822,69.293427 
	C63.750298,71.359154 66.079384,72.089622 68.013641,68.979904 
	C68.000702,69.001724 67.953896,69.021324 68.226593,68.962524 
	C68.670059,68.588921 68.840820,68.274117 69.007629,67.980774 
	C69.003685,68.002235 68.962967,68.017937 69.248596,67.909988 
	C69.221039,66.850037 68.884201,65.061134 68.598175,65.069229 
	C62.463142,65.242699 63.079216,60.875999 62.998386,56.988098 
	C63.010147,57.008560 62.965137,56.994339 63.310356,56.948395 
	C65.166908,53.262177 66.678246,49.621895 68.440994,46.149681 
	C69.761597,46.875908 70.830780,47.434074 71.935257,48.354317 
	C72.111252,49.670891 72.251961,50.625381 72.555885,51.819466 
	C73.063782,52.744862 73.408470,53.430668 73.390900,54.249878 
	C72.204384,54.388271 71.354698,54.264400 70.560394,54.421127 
	C67.538712,55.017372 66.009445,57.251408 67.228157,59.794949 
	C67.943527,61.287991 70.829185,62.798038 72.479767,62.553455 
	C75.398682,62.120930 76.025826,59.481628 74.976631,56.723030 
	C74.634331,55.823044 74.151764,54.976414 74.113480,54.082397 
	C75.468536,54.292809 76.443466,54.526203 77.564400,54.950840 
	C78.007370,55.529709 78.304337,55.917336 78.666306,56.678806 
	C78.596680,58.530609 78.462044,60.008568 78.182716,61.608429 
	C77.846825,61.896015 77.664780,62.071228 77.274643,62.532696 
	C77.160439,63.683487 77.263489,64.557549 77.650429,65.692474 
	C84.041916,68.342209 86.444206,66.634613 86.067406,60.228436 
	C86.011093,59.271038 86.236366,58.297073 86.620667,57.205376 
	C88.499557,57.149155 90.089165,57.218334 91.765656,57.616417 
	C92.314964,59.415100 92.777390,60.884876 93.461411,62.640350 
	C96.120277,65.232903 98.649284,65.351334 101.507370,63.020706 
	C104.068794,59.582439 101.623322,59.163532 99.168633,58.478477 
	C98.793694,58.068050 98.541710,57.877796 98.182686,57.344124 
	C98.180527,55.424816 98.257393,53.886024 98.525635,52.208145 
	C98.961121,51.864876 99.168999,51.628799 99.587311,51.243637 
	C100.251266,50.782509 100.668556,50.438557 101.309357,49.930489 
	C101.807022,49.288742 102.081161,48.811123 102.545242,48.187088 
	C102.976799,47.827316 103.184639,47.584988 103.620316,47.242279 
	C105.931740,47.438309 107.981567,47.705746 110.015846,47.986515 
	C110.000305,47.999847 110.033020,47.973785 109.984238,48.338737 
	C109.895630,49.192600 109.855789,49.681507 109.392273,50.190186 
	C108.165741,50.049496 107.048042,49.473751 106.615509,49.801701 
	C104.901001,51.101612 103.400795,52.684196 101.821159,54.162010 
	C103.390350,55.489967 104.920395,57.860470 106.537186,57.921188 
	C109.572601,58.035175 111.085556,55.764118 110.308334,52.513840 
	C110.121849,51.733986 109.982422,50.942883 110.229164,50.153442 
	C111.441536,50.098412 112.246094,50.046894 113.026474,49.994789 
	C113.002296,49.994202 112.982819,49.949917 113.026016,50.233292 
	C113.394974,50.680809 113.720726,50.844952 114.023308,51.004868 
	C114.000137,51.000641 114.006195,50.953922 113.938530,51.365398 
	C113.209717,54.015598 113.104317,56.724751 111.724342,58.355000 
	C110.454735,59.854851 107.878326,60.746471 110.161926,62.710140 
	C111.584869,63.933727 115.306442,64.820511 116.039825,64.033997 
	C117.677490,62.277676 118.089516,59.378510 118.997025,56.970318 
	C118.993202,56.995712 118.948975,57.021835 119.228088,56.965950 
	C119.677673,56.590061 119.848160,56.270054 120.007446,55.972153 
	C119.996254,55.994251 119.946861,55.998100 120.365433,56.096897 
	C122.207306,56.129677 123.630615,56.063660 125.029091,55.995743 
	C125.004265,55.993843 124.980667,55.950001 125.039337,56.227386 
	C125.416008,56.677658 125.734001,56.850544 126.031021,57.009041 
	C126.010056,56.994652 126.005905,56.943966 125.867508,57.274902 
	C126.134468,59.361855 126.539818,61.117863 127.103546,63.135246 
	C129.007202,63.993511 130.752472,64.590408 132.596252,65.383469 
	C133.484924,65.151833 134.275116,64.724030 135.065292,64.296227 
	C134.029572,63.195484 132.993851,62.094738 131.982941,60.993916 
	C132.007751,60.993835 131.985779,61.038326 132.047638,60.641052 
	C132.409760,58.142853 132.709991,56.041927 132.999695,53.964447 
	C132.989151,53.987888 132.940964,54.005817 133.317429,54.096390 
	C134.963226,53.997559 136.232559,53.808147 137.818893,53.916008 
	C138.347595,54.411098 138.559280,54.608910 138.558350,55.057571 
	C138.037689,57.374126 137.228821,59.554977 137.664459,61.449692 
	C137.842361,62.223438 140.919739,63.079842 142.322098,62.672710 
	C145.628387,61.712826 145.490021,58.941204 144.974564,56.123287 
	C145.647171,56.029297 145.916092,55.990898 146.380829,56.149307 
	C147.027679,56.912716 147.478714,57.479321 147.988922,58.436302 
	C147.984879,61.778061 147.442688,64.313744 143.902328,65.102608 
	C143.419739,65.210144 143.314301,67.010269 143.013062,68.015350 
	C142.991882,68.003983 142.989151,67.956001 143.045380,68.227158 
	C143.412277,68.661690 143.722946,68.825066 144.011703,68.999573 
	C143.989792,69.010712 144.005035,68.963974 144.123199,69.302727 
	C146.728485,71.639862 148.987885,71.359650 151.026260,68.987915 
	C151.016846,69.013412 150.970032,69.041039 151.213135,68.806725 
	C151.631577,67.704613 151.806900,66.836807 151.995010,65.987778 
	C152.007797,66.006554 151.964478,65.992836 152.221573,65.927383 
	C152.645920,65.565315 152.813187,65.268715 152.989609,64.986206 
	C152.998779,65.000305 152.976715,64.971916 153.398285,65.016205 
	C155.226517,65.036430 156.633194,65.012360 158.017853,64.997620 
	C157.995819,65.006958 157.999741,64.959267 158.040985,65.242813 
	C158.404999,65.691772 158.727753,65.857193 159.030945,66.008675 
	C159.011398,65.994728 159.009140,65.946754 158.851471,66.278900 
	C158.808212,69.410454 158.922623,72.209869 159.014603,75.007614 
	C158.992172,75.005943 158.999817,74.961586 159.071594,75.217079 
	C159.439240,75.643501 159.735138,75.814438 160.010803,75.996185 
	C159.990601,76.006996 160.007874,75.964508 160.147797,76.265259 
	C162.624985,78.200012 164.404633,78.106308 165.487701,74.867142 
	C166.537857,74.496452 167.305466,74.237541 168.361282,74.187012 
	C170.696625,74.549301 172.743790,74.703209 174.790924,74.857117 
	C174.774124,72.612701 174.757309,70.368294 175.090775,68.106491 
	C176.141617,68.052567 176.842178,68.016045 177.542740,67.979515 
	C177.411240,71.546394 179.478470,75.912155 174.328491,77.727097 
	C171.277786,78.802223 168.081390,79.457687 165.002533,80.461433 
	C162.883087,81.152397 160.852844,82.117043 158.122070,82.776932 
	C146.665543,77.499359 135.424454,73.972923 123.599060,72.598145 
	C134.700745,76.414543 145.802414,80.230942 156.904114,84.047340 
M110.128822,79.336655 
	C111.062164,78.860359 111.995506,78.384064 113.155365,77.792168 
	C106.510803,73.805046 103.853485,73.942398 99.430511,79.575188 
	C102.761124,79.575188 106.091736,79.575188 110.128822,79.336655 
M140.220367,82.057274 
	C136.803436,77.905144 132.593750,77.661781 127.510040,79.550903 
	C131.396759,83.414154 135.351212,85.254257 140.220367,82.057274 
M79.358345,83.422287 
	C80.972687,82.279915 82.587029,81.137550 84.742607,79.612183 
	C76.334793,77.817207 74.652657,78.371292 71.240234,83.773064 
	C73.852692,83.773064 76.259583,83.773064 79.358345,83.422287 
M94.865707,71.656975 
	C102.962494,71.656975 111.059280,71.656975 119.156059,71.656975 
	C119.171974,71.537323 119.187889,71.417679 119.203804,71.298027 
	C111.247055,71.298027 103.290298,71.298027 94.865707,71.656975 
M148.479187,88.830269 
	C149.091492,87.290535 149.703781,85.750793 150.316071,84.211052 
	C148.869629,84.202919 147.423187,84.194786 145.976746,84.186646 
	C146.566605,85.730652 147.156464,87.274666 148.479187,88.830269 
M59.922642,82.154266 
	C64.171600,80.707260 68.420563,79.260262 72.669525,77.813255 
	C72.483200,77.295876 72.296883,76.778496 72.110565,76.261116 
	C67.102127,78.004768 62.093681,79.748421 57.085239,81.492073 
	C57.214432,81.903748 57.343624,82.315422 57.472816,82.727097 
	C58.047821,82.597809 58.622826,82.468529 59.922642,82.154266 
M120.602882,75.757690 
	C119.644485,77.061531 118.686089,78.365372 117.727692,79.669212 
	C119.150154,80.023148 120.572609,80.377083 121.995071,80.731010 
	C121.785202,79.125069 121.575333,77.519135 120.602882,75.757690 
M63.369122,83.453140 
	C62.777561,84.951828 62.185997,86.450508 61.594437,87.949196 
	C62.916126,87.999687 64.237816,88.050179 65.559502,88.100677 
	C65.060898,86.552803 64.562302,85.004921 63.369122,83.453140 
M73.109207,66.972191 
	C72.741379,68.454399 72.373543,69.936607 71.845299,72.065216 
	C74.347374,71.350533 76.146675,70.836586 79.518692,69.873421 
	C76.531441,68.208115 74.880455,67.287735 73.109207,66.972191 
z"/>
<path fill="#018176" opacity="1.000000" stroke="none" 
	d="
M168.073090,73.978622 
	C167.305466,74.237541 166.537857,74.496452 165.410706,74.762833 
	C165.051178,74.770294 164.984207,74.520203 164.890198,74.396339 
	C164.581085,74.208656 164.365997,74.144844 164.048065,74.430511 
	C162.632767,75.174835 161.320328,75.569672 160.007874,75.964508 
	C160.007874,75.964508 159.990601,76.006996 159.959259,75.727005 
	C159.618546,75.285210 159.309174,75.123398 158.999817,74.961586 
	C158.999817,74.961586 158.992172,75.005943 159.069504,74.607689 
	C159.100937,71.455208 159.055038,68.700981 159.009140,65.946754 
	C159.009140,65.946754 159.011398,65.994728 158.945770,65.755051 
	C158.586670,65.330009 158.293198,65.144638 157.999741,64.959267 
	C157.999741,64.959267 157.995819,65.006958 157.860168,64.730209 
	C156.141922,64.626274 154.559311,64.799095 152.976715,64.971916 
	C152.976715,64.971916 152.998779,65.000305 152.723495,65.037567 
	C152.286972,65.380836 152.125717,65.686836 151.964478,65.992828 
	C151.964478,65.992836 152.007797,66.006554 151.697021,66.176239 
	C151.247513,67.244301 151.108780,68.142670 150.970032,69.041039 
	C150.970032,69.041039 151.016846,69.013412 150.586151,68.944962 
	C148.105316,68.905663 146.055176,68.934814 144.005035,68.963974 
	C144.005035,68.963974 143.989792,69.010712 143.934967,68.743904 
	C143.583160,68.303398 143.286148,68.129700 142.989151,67.956001 
	C142.989151,67.956001 142.991882,68.003983 143.212173,67.740173 
	C147.317963,65.512360 151.219223,63.557907 149.065063,57.658821 
	C146.761414,54.280617 146.778076,51.572266 150.524780,49.460739 
	C155.055466,50.965050 159.198212,52.368813 163.423141,53.800426 
	C162.649048,47.537868 157.644775,42.312523 148.929169,38.562187 
	C147.656906,38.172501 146.664078,37.811333 145.715256,37.903431 
	C144.129166,38.057384 142.571152,38.500877 141.001328,38.822495 
	C141.713989,40.109314 142.616623,41.331123 143.085541,42.701355 
	C143.548294,44.053608 143.572281,45.556011 143.679855,47.133865 
	C143.815033,47.860298 144.059113,48.445408 144.419739,49.371063 
	C145.085861,51.791908 145.635452,53.872208 146.185028,55.952503 
	C145.916092,55.990898 145.647171,56.029297 144.727676,55.985222 
	C142.582962,55.369038 141.088791,54.835327 139.445679,53.730225 
	C139.197189,52.777958 139.097687,52.397083 139.118988,51.694283 
	C138.830475,49.552608 138.421143,47.732853 137.990372,45.630878 
	C137.954803,45.160496 137.940674,44.972340 137.934982,44.401451 
	C136.971634,41.426216 136.447403,38.532669 134.944077,36.297695 
	C130.449692,29.615936 123.639450,26.319191 116.010437,24.488955 
	C115.657776,23.373541 115.305122,22.258125 115.227768,22.013464 
	C118.485825,21.077644 121.132904,20.317316 123.893784,19.325844 
	C124.351303,18.990147 124.636559,19.077196 125.031624,19.862158 
	C124.527237,25.349915 129.976776,24.790968 131.793533,27.613819 
	C133.438858,30.170265 135.254730,29.469999 136.579895,27.022390 
	C136.879929,27.340885 137.179977,27.659380 137.675201,28.509895 
	C138.145538,31.061567 138.420685,33.081219 138.695831,35.100868 
	C140.137695,33.720108 141.579575,32.339348 143.021439,30.958591 
	C144.407990,31.012323 145.794525,31.066055 147.411896,31.450151 
	C147.252960,32.551594 146.863205,33.322674 146.442261,34.155457 
	C148.681442,34.155457 150.523911,34.155457 152.345123,34.483826 
	C152.827637,35.698353 153.331406,36.584511 154.092331,37.592480 
	C155.267624,37.162384 156.185776,36.610481 157.422272,36.073883 
	C158.558548,36.700905 159.376450,37.312626 159.994324,38.106270 
	C159.336075,41.815594 159.336075,41.815594 165.335037,42.896996 
	C165.636490,43.020023 165.837677,43.236309 165.793671,43.901413 
	C165.455750,45.059906 165.262756,45.862843 165.069778,46.665779 
	C165.758545,46.423050 166.447327,46.180321 167.136093,45.937592 
	C168.136597,47.714077 169.137115,49.490559 169.792450,51.730553 
	C167.379745,55.279446 167.458984,55.417736 172.162415,56.932617 
	C172.451630,57.733875 172.740845,58.535133 172.622711,59.711639 
	C171.501541,60.955914 170.787720,61.824940 170.073914,62.693966 
	C171.648727,62.802296 173.223526,62.910622 174.798340,63.018951 
	C175.772064,64.455208 176.745789,65.891464 177.631134,67.653610 
	C176.842178,68.016045 176.141617,68.052567 174.695557,68.018234 
	C169.053986,67.095856 167.519196,69.519600 168.073090,73.978622 
M165.558884,66.742447 
	C166.172363,65.787071 166.785843,64.831696 167.399323,63.876320 
	C166.915665,63.671112 166.432007,63.465900 165.948349,63.260693 
	C165.618042,64.497795 165.287735,65.734901 164.608475,67.184067 
	C164.233551,67.526085 163.858627,67.868095 163.483688,68.210114 
	C163.627869,68.338585 163.772049,68.467064 163.916214,68.595535 
	C164.289444,68.079033 164.662659,67.562531 165.558884,66.742447 
M165.023361,58.958893 
	C165.023361,58.958893 165.051834,58.995625 165.023361,58.958893 
M165.489853,55.981686 
	C165.489853,55.981686 165.513977,56.007065 165.489853,55.981686 
z"/>
<path fill="#008075" opacity="1.000000" stroke="none" 
	d="
M53.984695,64.999428 
	C50.472469,67.253372 51.506424,70.524139 51.927238,74.310425 
	C51.031841,74.762550 49.650425,74.719009 49.578518,74.389610 
	C49.310211,73.160500 49.471321,71.837639 49.471321,70.549957 
	C49.130657,70.543495 48.789993,70.537033 48.449329,70.530571 
	C48.134102,71.750565 47.818871,72.970566 47.503643,74.190567 
	C46.980251,74.147736 46.456856,74.104919 45.498329,73.637634 
	C43.388397,67.856972 41.305290,67.296082 36.601540,70.988785 
	C36.401566,70.988884 36.001724,70.998131 36.001724,70.998131 
	C35.618591,70.380791 35.235458,69.763451 34.881790,68.395546 
	C34.906788,67.329361 34.902321,67.013733 34.897850,66.698105 
	C35.723824,65.245796 36.549797,63.793491 37.777405,62.506115 
	C39.239918,63.089561 40.300797,63.508076 41.361675,63.926586 
	C41.635147,62.761181 41.977299,61.606613 42.163387,60.427418 
	C42.362247,59.167313 42.243992,57.837383 42.576805,56.623665 
	C42.920063,55.371849 43.639771,54.223263 44.194778,53.029510 
	C42.696682,52.993900 41.198582,52.958294 39.700485,52.922688 
	C40.912971,51.022243 42.125458,49.121796 43.766975,47.339272 
	C45.246441,47.842373 46.296871,48.227547 47.347301,48.612724 
	C47.149452,47.364265 46.951603,46.115810 46.753757,44.867352 
	C47.248459,43.656212 47.743160,42.445072 48.741116,41.008125 
	C50.496529,41.522282 51.748684,42.262241 53.288826,43.267174 
	C53.768795,43.708790 53.960781,43.885437 53.977432,44.350876 
	C52.044655,47.200199 50.287220,49.760723 47.840012,53.326221 
	C53.620388,51.820896 57.794579,50.733856 62.097473,49.981018 
	C62.472492,52.541595 62.718815,54.767967 62.965137,56.994339 
	C62.965137,56.994339 63.010147,57.008560 62.682281,57.142113 
	C60.474388,62.377235 61.679527,64.908577 66.626686,66.515381 
	C67.478287,66.791969 68.187813,67.505981 68.962967,68.017937 
	C68.962967,68.017937 69.003685,68.002235 68.761703,68.076904 
	C68.331116,68.441498 68.142502,68.731407 67.953896,69.021324 
	C67.953896,69.021324 68.000702,69.001724 67.660751,69.035812 
	C65.211884,69.035187 63.102970,69.000481 60.994061,68.965775 
	C60.994061,68.965775 60.994442,69.006348 61.056320,68.663193 
	C60.417866,67.537407 59.717529,66.754791 59.017189,65.972168 
	C59.017189,65.972168 58.998371,66.001633 58.914711,65.669594 
	C57.215595,65.224846 55.600147,65.112137 53.984695,64.999428 
M47.630009,55.581184 
	C47.241955,56.697277 46.853897,57.813370 46.465839,58.929466 
	C46.918686,59.040176 47.371536,59.150883 47.824387,59.261593 
	C48.199234,57.805641 48.574085,56.349686 48.879425,54.450085 
	C48.666550,54.305721 48.453678,54.161358 48.240803,54.016998 
	C48.158127,54.379795 48.075447,54.742592 47.630009,55.581184 
M45.026505,66.200500 
	C45.502544,66.437737 45.978580,66.674965 46.454620,66.912201 
	C46.539375,66.504723 46.624130,66.097252 46.708889,65.689774 
	C46.142399,65.737289 45.575905,65.784813 45.026505,66.200500 
z"/>
<path fill="#008075" opacity="1.000000" stroke="none" 
	d="
M71.899963,47.992237 
	C70.830780,47.434074 69.761597,46.875908 68.300362,45.966568 
	C67.908310,45.615391 67.730812,45.189167 67.900772,44.976715 
	C68.386635,44.325222 68.702530,43.886177 69.256187,43.256855 
	C69.767342,41.672283 70.040733,40.277988 70.314117,38.883690 
	C68.994400,38.792763 67.675285,38.646305 66.354729,38.631866 
	C65.570168,38.623287 64.783333,38.822624 63.657543,38.958374 
	C62.245781,39.351288 61.173996,39.714306 59.821625,39.798855 
	C59.354008,39.334709 59.166973,39.149033 59.113678,38.722328 
	C60.741215,34.861794 57.873066,35.338482 55.928905,34.947475 
	C58.049782,33.621132 60.170658,32.294792 62.856182,31.000748 
	C63.420830,31.033045 63.838863,31.051601 63.838863,31.051601 
	C64.041031,31.059753 64.243210,31.067905 64.599243,31.352728 
	C64.295982,32.664452 63.838860,33.699505 62.893845,35.839268 
	C65.787704,34.503155 67.412567,33.752949 69.037422,33.002747 
	C70.352386,33.924019 71.667358,34.845295 72.982330,35.766571 
	C73.202354,34.273529 73.403107,32.777309 73.648148,31.288382 
	C73.867569,29.955143 74.135780,28.629934 74.925339,27.249269 
	C75.630402,27.254377 75.792603,27.311399 75.996483,27.592228 
	C76.374954,28.319431 76.711739,28.822826 77.048531,29.326221 
	C77.373116,28.999912 77.697701,28.673599 78.330414,28.205948 
	C80.098839,26.744091 81.559143,25.423573 83.140579,24.249706 
	C83.820435,24.625595 84.379158,24.854832 85.190063,24.902679 
	C85.947456,23.842062 86.452675,22.962831 86.966537,21.752422 
	C86.986168,20.980864 86.997139,20.540485 87.308044,20.207371 
	C89.809608,21.840273 92.016319,23.306171 94.804138,20.749090 
	C95.381935,20.379519 95.706825,20.164593 96.265030,20.107254 
	C97.023857,20.783781 97.549370,21.302721 98.074890,21.821661 
	C98.054260,22.484785 98.033630,23.147907 97.577896,24.225197 
	C84.820518,25.640886 77.614578,33.004665 73.067215,44.197754 
	C72.572067,45.679577 72.236015,46.835907 71.899963,47.992237 
z"/>
<path fill="#08211E" opacity="1.000000" stroke="none" 
	d="
M157.087799,83.872971 
	C145.802414,80.230942 134.700745,76.414543 123.599060,72.598145 
	C135.424454,73.972923 146.665543,77.499359 157.743988,82.808289 
	C157.774887,83.247597 157.523193,83.473099 157.087799,83.872971 
z"/>
<path fill="#027C71" opacity="1.000000" stroke="none" 
	d="
M136.594116,26.884556 
	C135.254730,29.469999 133.438858,30.170265 131.793533,27.613819 
	C129.976776,24.790968 124.527237,25.349915 125.132278,20.075603 
	C129.991943,20.314838 133.704910,22.859823 136.594116,26.884556 
z"/>
<path fill="#027C71" opacity="1.000000" stroke="none" 
	d="
M39.456764,53.126541 
	C41.198582,52.958294 42.696682,52.993900 44.194778,53.029510 
	C43.639771,54.223263 42.920063,55.371849 42.576805,56.623665 
	C42.243992,57.837383 42.362247,59.167313 42.163387,60.427418 
	C41.977299,61.606613 41.635147,62.761181 41.361675,63.926586 
	C40.300797,63.508076 39.239918,63.089561 38.085670,62.429459 
	C38.399216,59.235378 38.806129,56.282887 39.456764,53.126541 
z"/>
<path fill="#030706" opacity="1.000000" stroke="none" 
	d="
M36.801510,70.988678 
	C41.305290,67.296082 43.388397,67.856972 45.105881,73.604340 
	C41.264580,78.163010 40.103855,78.145859 36.958260,73.518646 
	C36.921345,72.958069 36.927231,72.754013 36.900280,72.008240 
	C36.867447,71.466522 36.801510,70.988678 36.801510,70.988678 
z"/>
<path fill="#055C53" opacity="1.000000" stroke="none" 
	d="
M83.019447,24.103054 
	C81.559143,25.423573 80.098839,26.744091 78.067078,28.092594 
	C76.982010,27.869862 76.468407,27.619141 75.954803,27.368420 
	C75.792603,27.311399 75.630402,27.254377 75.231049,27.096029 
	C78.141861,24.052368 81.289825,21.110033 84.824142,18.638035 
	C85.792953,20.100117 86.375420,21.091860 86.957886,22.083603 
	C86.452675,22.962831 85.947456,23.842062 85.067490,24.755306 
	C84.134979,24.560566 83.577209,24.331810 83.019447,24.103054 
z"/>
<path fill="#06110F" opacity="1.000000" stroke="none" 
	d="
M160.194351,37.924347 
	C159.376450,37.312626 158.558548,36.700905 157.206360,35.942528 
	C155.726471,36.354137 154.780823,36.912403 153.835190,37.470673 
	C153.331406,36.584511 152.827637,35.698353 152.513733,34.351753 
	C152.889694,33.656380 152.976105,33.389214 152.962830,33.089806 
	C153.973877,32.489815 155.564240,31.141449 155.906021,31.406027 
	C159.191376,33.949249 162.266251,36.764362 164.971863,39.701630 
	C163.093018,39.242542 161.643677,38.583447 160.194351,37.924347 
z"/>
<path fill="#055C53" opacity="1.000000" stroke="none" 
	d="
M94.551231,20.903734 
	C92.016319,23.306171 89.809608,21.840273 87.123932,20.041836 
	C86.391991,19.549219 86.173210,19.303484 85.983536,19.031830 
	C88.531067,17.298941 90.468170,13.324860 94.637680,17.151730 
	C94.756325,18.680246 94.653778,19.791990 94.551231,20.903734 
z"/>
<path fill="#027C71" opacity="1.000000" stroke="none" 
	d="
M142.880890,30.659590 
	C141.579575,32.339348 140.137695,33.720108 138.695831,35.100868 
	C138.420685,33.081219 138.145538,31.061567 137.920547,28.728025 
	C139.560577,29.062954 141.150467,29.711773 142.880890,30.659590 
z"/>
<path fill="#027C71" opacity="1.000000" stroke="none" 
	d="
M46.571030,44.809357 
	C46.951603,46.115810 47.149452,47.364265 47.347301,48.612724 
	C46.296871,48.227547 45.246441,47.842373 44.081001,47.183609 
	C44.773434,46.190472 45.580868,45.470917 46.571030,44.809357 
z"/>
<path fill="#027C71" opacity="1.000000" stroke="none" 
	d="
M152.708344,32.953537 
	C152.976105,33.389214 152.889694,33.656380 152.535004,34.023384 
	C150.523911,34.155457 148.681442,34.155457 146.442261,34.155457 
	C146.863205,33.322674 147.252960,32.551594 147.800171,31.604527 
	C149.456375,31.891447 150.955124,32.354355 152.708344,32.953537 
z"/>
<path fill="#008075" opacity="1.000000" stroke="none" 
	d="
M50.988060,38.988789 
	C51.441681,38.387920 51.895302,37.787056 52.947868,37.193481 
	C55.357861,37.788303 57.168900,38.375832 58.979942,38.963360 
	C59.166973,39.149033 59.354008,39.334709 59.586548,40.029152 
	C57.805626,41.712643 55.979195,42.887360 54.152763,44.062080 
	C53.960781,43.885437 53.768795,43.708790 53.353592,42.980858 
	C52.416275,41.282646 51.702168,40.135715 50.988060,38.988789 
z"/>
<path fill="#027C71" opacity="1.000000" stroke="none" 
	d="
M159.994324,38.106270 
	C161.643677,38.583447 163.093018,39.242542 164.894714,39.951874 
	C165.250549,40.726627 165.254044,41.451149 165.296295,42.536331 
	C159.336075,41.815594 159.336075,41.815594 159.994324,38.106270 
z"/>
<path fill="#027C71" opacity="1.000000" stroke="none" 
	d="
M59.113678,38.722328 
	C57.168900,38.375832 55.357861,37.788303 53.211040,37.074883 
	C53.718269,36.229050 54.561275,35.509109 55.666595,34.868324 
	C57.873066,35.338482 60.741215,34.861794 59.113678,38.722328 
z"/>
<path fill="#027C71" opacity="1.000000" stroke="none" 
	d="
M50.768360,39.054787 
	C51.702168,40.135715 52.416275,41.282646 53.065609,42.715889 
	C51.748684,42.262241 50.496529,41.522282 49.031658,40.736641 
	C49.395515,40.167576 49.972088,39.644184 50.768360,39.054787 
z"/>
<path fill="#027C71" opacity="1.000000" stroke="none" 
	d="
M174.739838,62.707901 
	C173.223526,62.910622 171.648727,62.802296 170.073914,62.693966 
	C170.787720,61.824940 171.501541,60.955914 172.515884,60.036758 
	C173.438065,60.790039 174.059708,61.593445 174.739838,62.707901 
z"/>
<path fill="#027C71" opacity="1.000000" stroke="none" 
	d="
M172.115967,56.581036 
	C167.458984,55.417736 167.379745,55.279446 169.718948,52.092918 
	C170.683594,53.404327 171.376556,54.816887 172.115967,56.581036 
z"/>
<path fill="#027C71" opacity="1.000000" stroke="none" 
	d="
M69.158401,32.741257 
	C67.412567,33.752949 65.787704,34.503155 62.893845,35.839268 
	C63.838860,33.699505 64.295982,32.664452 64.899185,31.399048 
	C65.045273,31.168699 64.952309,31.016468 65.332855,30.965870 
	C66.501610,30.854134 67.289818,30.792995 68.078018,30.731857 
	C68.478470,31.314497 68.878929,31.897137 69.158401,32.741257 
z"/>
<path fill="#055C53" opacity="1.000000" stroke="none" 
	d="
M98.318527,21.666885 
	C97.549370,21.302721 97.023857,20.783781 96.241516,19.718330 
	C95.974785,18.392071 95.964890,17.612320 95.954987,16.832569 
	C96.393921,16.533096 96.832855,16.233627 97.519333,15.829617 
	C98.031975,17.654087 98.297073,19.583099 98.318527,21.666885 
z"/>
<path fill="#027C71" opacity="1.000000" stroke="none" 
	d="
M167.144135,45.688202 
	C166.447327,46.180321 165.758545,46.423050 165.069778,46.665779 
	C165.262756,45.862843 165.455750,45.059906 165.829193,44.126038 
	C166.390488,44.476345 166.771317,44.957577 167.144135,45.688202 
z"/>
<path fill="#091512" opacity="1.000000" stroke="none" 
	d="
M67.914886,30.558304 
	C67.289818,30.792995 66.501610,30.854134 65.318962,30.877773 
	C65.866928,30.688435 66.809334,30.536592 67.914886,30.558304 
z"/>
<path fill="#027C71" opacity="1.000000" stroke="none" 
	d="
M95.708740,16.829376 
	C95.964890,17.612320 95.974785,18.392071 96.008194,19.560745 
	C95.706825,20.164593 95.381935,20.379519 94.804138,20.749090 
	C94.653778,19.791990 94.756325,18.680246 94.936417,17.299089 
	C95.013977,17.029676 95.462502,16.826185 95.708740,16.829376 
z"/>
<path fill="#027C71" opacity="1.000000" stroke="none" 
	d="
M85.760834,18.856232 
	C86.173210,19.303484 86.391991,19.549219 86.824005,19.934570 
	C86.997139,20.540485 86.986168,20.980864 86.966537,21.752422 
	C86.375420,21.091860 85.792953,20.100117 85.122803,18.763430 
	C85.202797,18.505867 85.370461,18.593250 85.760834,18.856232 
z"/>
<path fill="#027C71" opacity="1.000000" stroke="none" 
	d="
M63.760666,30.936245 
	C63.838863,31.051601 63.420830,31.033045 63.212505,31.014912 
	C63.161377,30.788189 63.318573,30.579599 63.475769,30.371014 
	C63.441326,30.423658 63.367340,30.510424 63.378674,30.523563 
	C63.470917,30.630457 63.579121,30.723577 63.760666,30.936245 
z"/>
<path fill="#091512" opacity="1.000000" stroke="none" 
	d="
M70.490845,29.510483 
	C70.521080,29.498220 70.460602,29.522743 70.490845,29.510483 
z"/>
<path fill="#027C71" opacity="1.000000" stroke="none" 
	d="
M34.753960,66.918915 
	C34.902321,67.013733 34.906788,67.329361 34.914124,68.119247 
	C34.814690,68.108917 34.712379,67.624321 34.753960,66.918915 
z"/>
<path fill="#027C71" opacity="1.000000" stroke="none" 
	d="
M36.601540,70.988785 
	C36.801510,70.988678 36.867447,71.466522 36.917999,71.702560 
	C36.612743,71.924568 36.343288,71.764847 36.080956,71.228775 
	C36.001724,70.998131 36.401566,70.988884 36.601540,70.988785 
z"/>
<path fill="#010302" opacity="1.000000" stroke="none" 
	d="
M148.973923,276.964874 
	C110.894966,298.478943 58.342766,286.624023 32.439713,250.066193 
	C10.528984,219.142868 8.119205,186.091660 24.278526,151.356354 
	C25.192211,151.049576 25.602743,151.040985 26.007629,151.386108 
	C29.343609,154.835419 32.685230,157.931046 36.474091,161.080338 
	C37.219635,161.168533 37.517937,161.203079 37.692841,161.606232 
	C19.151766,202.860336 40.482208,244.226547 65.911911,257.623627 
	C66.351532,251.099014 67.051163,245.709839 61.378601,240.059738 
	C42.542126,221.297897 37.297218,198.597549 45.295395,173.155289 
	C46.039936,173.522110 46.533051,173.774078 47.248676,174.268311 
	C50.317154,177.048874 53.163116,179.587189 56.174561,182.418076 
	C56.679802,183.292007 57.019554,183.873337 57.373016,184.770416 
	C57.292286,185.708267 57.197849,186.330399 57.009827,187.144989 
	C56.915989,187.897324 56.915737,188.457199 56.938251,189.444000 
	C56.872116,191.578293 56.783218,193.285675 56.656124,195.123184 
	C56.591236,195.533737 56.654903,195.791428 56.872177,196.402863 
	C57.077320,197.526184 57.219219,198.273026 57.322762,199.362701 
	C57.475399,200.828674 57.666389,201.951797 57.867111,203.469101 
	C62.004379,225.238144 80.892357,242.103806 102.255424,243.363327 
	C105.144691,243.483810 107.694275,243.427948 110.668976,243.375641 
	C113.747292,243.594940 116.400497,243.810699 118.841599,244.193512 
	C119.099113,245.189240 119.568733,246.017883 120.214066,247.134811 
	C125.692398,252.835663 130.906540,258.338867 136.326614,263.631165 
	C140.407532,267.615875 144.752472,271.330200 148.973816,275.464783 
	C148.969788,276.164764 148.971863,276.564819 148.973923,276.964874 
M104.151657,264.664978 
	C104.539635,261.293915 105.207542,257.927368 105.262131,254.550919 
	C105.414612,245.121002 105.314529,245.115524 95.774673,244.755173 
	C95.482048,244.744125 95.179230,245.003098 94.204079,245.438477 
	C94.204079,248.735031 94.141968,252.347122 94.216034,255.956421 
	C94.416801,265.739166 92.439850,265.033417 104.151657,264.664978 
z"/>
<path fill="#010202" opacity="1.000000" stroke="none" 
	d="
M65.043671,110.034538 
	C96.566849,94.339661 127.520653,95.886734 157.021378,114.644531 
	C196.749100,139.905121 210.203018,189.710007 189.729477,234.629974 
	C188.851547,234.956940 188.452576,234.968552 188.064072,234.621460 
	C185.408752,231.123856 182.742966,227.984970 179.984756,224.497498 
	C179.148529,222.625122 178.404739,221.101303 177.712631,219.200928 
	C189.824966,184.123337 175.649353,149.152390 150.168991,131.110901 
	C144.089752,126.806465 143.956848,126.705925 138.935440,132.132065 
	C134.840744,136.556824 131.087067,141.297165 126.977348,146.092300 
	C126.499413,146.547272 126.226318,146.807541 125.583618,146.992157 
	C116.437279,143.370544 107.311165,142.938278 97.920212,143.624664 
	C97.545120,142.919479 97.282188,142.456238 96.863983,141.697693 
	C86.829666,131.512589 76.950623,121.622780 66.897064,111.532227 
	C66.162926,110.899170 65.603294,110.466850 65.043671,110.034538 
z"/>
<path fill="#091714" opacity="1.000000" stroke="none" 
	d="
M64.681030,110.040161 
	C65.603294,110.466850 66.162926,110.899170 66.517670,111.540504 
	C61.236317,114.846741 55.921440,117.616837 51.131779,121.107574 
	C40.331173,128.979111 32.789810,139.714447 26.013275,151.032410 
	C25.602743,151.040985 25.192211,151.049576 24.473526,151.059174 
	C32.904472,132.841034 46.481457,119.358162 64.681030,110.040161 
z"/>
<path fill="#091714" opacity="1.000000" stroke="none" 
	d="
M188.053619,234.980164 
	C188.452576,234.968552 188.851547,234.956940 189.550018,234.943481 
	C181.236298,253.490891 167.560532,267.185791 149.323242,276.903320 
	C148.971863,276.564819 148.969788,276.164764 149.239471,275.241058 
	C166.264496,265.260040 178.822922,251.733932 188.053619,234.980164 
z"/>
<path fill="#030706" opacity="1.000000" stroke="none" 
	d="
M73.226303,43.872265 
	C77.614578,33.004665 84.820518,25.640886 97.566208,24.556717 
	C99.065552,24.553905 100.141472,24.633738 101.788498,25.149391 
	C102.554100,30.031408 102.748596,34.477604 102.666611,38.969032 
	C102.206734,39.048786 102.023323,39.083302 101.391907,39.027191 
	C91.549042,38.283554 82.311584,38.452057 73.900360,44.006470 
	C73.681335,43.936901 73.226303,43.872265 73.226303,43.872265 
z"/>
<path fill="#030504" opacity="1.000000" stroke="none" 
	d="
M115.585701,24.548824 
	C123.639450,26.319191 130.449692,29.615936 134.944077,36.297695 
	C136.447403,38.532669 136.971634,41.426216 137.636642,44.256008 
	C133.562164,42.662434 129.794464,40.831570 125.915047,38.920494 
	C125.548950,38.715755 125.283051,38.681835 124.678391,38.749809 
	C123.918808,38.707386 123.486450,38.653671 122.981323,38.513474 
	C122.586418,38.479408 122.264267,38.531826 121.575287,38.624992 
	C120.496178,38.507603 119.783897,38.349464 118.893135,38.066032 
	C117.784050,38.085747 116.853447,38.230759 115.523430,38.494190 
	C113.475327,38.806599 111.826630,39.000587 109.948105,38.951134 
	C109.426376,38.109016 109.134476,37.510338 108.974945,36.560886 
	C109.293358,35.746151 109.479408,35.282196 109.732208,34.662132 
	C109.725845,34.084000 109.652733,33.661972 109.448792,32.805893 
	C109.271370,30.578367 109.224770,28.784895 109.349617,26.781738 
	C109.697182,26.061819 109.873299,25.551582 110.049423,25.041348 
	C111.753273,24.897129 113.457115,24.752911 115.585701,24.548824 
z"/>
<path fill="#055C53" opacity="1.000000" stroke="none" 
	d="
M109.665466,34.818237 
	C109.479408,35.282196 109.293358,35.746151 108.673233,36.648205 
	C106.473808,37.698799 104.708450,38.311298 102.943092,38.923798 
	C102.748596,34.477604 102.554100,30.031408 102.191208,25.192455 
	C103.187210,24.769463 104.351608,24.739227 105.923851,25.086620 
	C107.280525,25.973309 108.229355,26.482365 109.178177,26.991421 
	C109.224770,28.784895 109.271370,30.578367 109.160362,32.682671 
	C108.041962,32.882381 107.081169,32.771263 106.120369,32.660149 
	C106.044525,33.025692 105.968674,33.391235 105.892822,33.756779 
	C107.150368,34.110600 108.407921,34.464420 109.665466,34.818237 
z"/>
<path fill="#093B35" opacity="1.000000" stroke="none" 
	d="
M109.349617,26.781738 
	C108.229355,26.482365 107.280525,25.973309 106.126709,25.205006 
	C107.097618,24.913980 108.273514,24.882200 109.749420,24.945885 
	C109.873299,25.551582 109.697182,26.061819 109.349617,26.781738 
z"/>
<path fill="#008277" opacity="1.000000" stroke="none" 
	d="
M110.177940,39.194576 
	C111.826630,39.000587 113.475327,38.806599 115.918427,38.502922 
	C117.499100,38.325932 118.285355,38.258629 119.071617,38.191326 
	C119.783897,38.349464 120.496178,38.507603 121.852631,38.674629 
	C122.682571,38.655663 122.868332,38.627808 123.054085,38.599953 
	C123.486450,38.653671 123.918808,38.707386 124.922638,38.858479 
	C125.671654,38.970802 125.849213,38.985752 126.026779,39.000706 
	C129.794464,40.831570 133.562164,42.662434 137.628189,44.638741 
	C137.940674,44.972340 137.954803,45.160496 137.970337,45.921577 
	C138.313858,48.335068 138.656006,50.175636 138.998169,52.016209 
	C139.097687,52.397083 139.197189,52.777958 139.343903,53.864639 
	C139.212784,54.723755 139.006073,54.802509 138.770950,54.806717 
	C138.559280,54.608910 138.347595,54.411098 137.818207,53.638245 
	C135.980667,53.377415 134.460815,53.691616 132.940964,54.005817 
	C132.940964,54.005817 132.989151,53.987888 132.702606,54.173508 
	C132.272644,56.585526 132.129211,58.811924 131.985779,61.038326 
	C131.985779,61.038326 132.007751,60.993835 131.934143,61.314270 
	C132.072922,62.818909 132.285339,64.003113 132.497742,65.187309 
	C130.752472,64.590408 129.007202,63.993511 127.119553,62.742241 
	C126.653419,60.373234 126.329659,58.658600 126.005905,56.943966 
	C126.005905,56.943966 126.010056,56.994652 125.923523,56.767334 
	C125.551552,56.343349 125.266106,56.146675 124.980667,55.950001 
	C124.980667,55.950001 125.004265,55.993843 124.792923,55.719238 
	C123.036674,55.629124 121.491768,55.813614 119.946861,55.998100 
	C119.946861,55.998100 119.996254,55.994251 119.759026,56.070480 
	C119.330856,56.438419 119.139915,56.730125 118.948975,57.021835 
	C118.948975,57.021835 118.993202,56.995712 118.724457,57.215229 
	C116.417732,63.509502 115.448105,64.085571 111.571785,61.310886 
	C114.443687,58.359642 117.943123,55.463089 114.006195,50.953922 
	C114.006195,50.953922 114.000137,51.000641 113.941299,50.747330 
	C113.582588,50.312656 113.282700,50.131287 112.982819,49.949917 
	C112.982819,49.949917 113.002296,49.994202 112.850143,49.734749 
	C111.809662,48.974789 110.921341,48.474289 110.033020,47.973785 
	C110.033020,47.973785 110.000305,47.999847 110.050171,47.600815 
	C110.126007,44.532715 110.151970,41.863647 110.177940,39.194576 
z"/>
<path fill="#08211E" opacity="1.000000" stroke="none" 
	d="
M146.380829,56.149307 
	C145.635452,53.872208 145.085861,51.791908 144.362350,49.023804 
	C144.055191,47.888176 143.921967,47.440361 143.788742,46.992546 
	C143.572281,45.556011 143.548294,44.053608 143.085541,42.701355 
	C142.616623,41.331123 141.713989,40.109314 141.001328,38.822495 
	C142.571152,38.500877 144.129166,38.057384 145.715256,37.903431 
	C146.664078,37.811333 147.656906,38.172501 148.713257,38.833027 
	C145.728378,43.147438 149.726013,46.014034 150.136826,49.360195 
	C146.778076,51.572266 146.761414,54.280617 148.753662,57.667473 
	C148.344620,58.027130 148.137177,58.036530 147.929749,58.045929 
	C147.478714,57.479321 147.027679,56.912716 146.380829,56.149307 
z"/>
<path fill="#093B35" opacity="1.000000" stroke="none" 
	d="
M109.948105,38.951134 
	C110.151970,41.863647 110.126007,44.532715 110.065712,47.587486 
	C107.981567,47.705746 105.931740,47.438309 103.395050,47.064453 
	C102.757988,46.839500 102.607796,46.720970 102.501282,46.242500 
	C102.309944,43.627644 102.074936,41.372730 101.839920,39.117817 
	C102.023323,39.083302 102.206734,39.048786 102.666611,38.969032 
	C104.708450,38.311298 106.473808,37.698799 108.540871,36.998981 
	C109.134476,37.510338 109.426376,38.109016 109.948105,38.951134 
z"/>
<path fill="#030706" opacity="1.000000" stroke="none" 
	d="
M138.558350,55.057571 
	C139.006073,54.802509 139.212784,54.723755 139.492859,54.436035 
	C141.088791,54.835327 142.582962,55.369038 144.324005,56.040817 
	C145.490021,58.941204 145.628387,61.712826 142.322098,62.672710 
	C140.919739,63.079842 137.842361,62.223438 137.664459,61.449692 
	C137.228821,59.554977 138.037689,57.374126 138.558350,55.057571 
z"/>
<path fill="#030706" opacity="1.000000" stroke="none" 
	d="
M73.733345,54.105381 
	C74.151764,54.976414 74.634331,55.823044 74.976631,56.723030 
	C76.025826,59.481628 75.398682,62.120930 72.479767,62.553455 
	C70.829185,62.798038 67.943527,61.287991 67.228157,59.794949 
	C66.009445,57.251408 67.538712,55.017372 70.560394,54.421127 
	C71.354698,54.264400 72.204384,54.388271 73.420563,54.203079 
	C73.812485,54.022877 73.733345,54.105381 73.733345,54.105381 
z"/>
<path fill="#030706" opacity="1.000000" stroke="none" 
	d="
M109.821358,50.156952 
	C109.982422,50.942883 110.121849,51.733986 110.308334,52.513840 
	C111.085556,55.764118 109.572601,58.035175 106.537186,57.921188 
	C104.920395,57.860470 103.390350,55.489967 101.821159,54.162010 
	C103.400795,52.684196 104.901001,51.101612 106.615509,49.801701 
	C107.048042,49.473751 108.165741,50.049496 109.440529,50.146049 
	C109.912476,50.082142 109.821358,50.156952 109.821358,50.156952 
z"/>
<path fill="#030706" opacity="1.000000" stroke="none" 
	d="
M168.361282,74.187004 
	C167.519196,69.519600 169.053986,67.095856 174.345276,68.035629 
	C174.757309,70.368294 174.774124,72.612701 174.790924,74.857117 
	C172.743790,74.703209 170.696625,74.549301 168.361282,74.187004 
z"/>
<path fill="#06110F" opacity="1.000000" stroke="none" 
	d="
M109.775589,79.455917 
	C106.091736,79.575188 102.761124,79.575188 99.430511,79.575188 
	C103.853485,73.942398 106.510803,73.805046 113.155365,77.792168 
	C111.995506,78.384064 111.062164,78.860359 109.775589,79.455917 
z"/>
<path fill="#06110F" opacity="1.000000" stroke="none" 
	d="
M140.315674,82.383957 
	C135.351212,85.254257 131.396759,83.414154 127.510040,79.550903 
	C132.593750,77.661781 136.803436,77.905144 140.315674,82.383957 
z"/>
<path fill="#06110F" opacity="1.000000" stroke="none" 
	d="
M79.012413,83.597672 
	C76.259583,83.773064 73.852692,83.773064 71.240234,83.773064 
	C74.652657,78.371292 76.334793,77.817207 84.742607,79.612183 
	C82.587029,81.137550 80.972687,82.279915 79.012413,83.597672 
z"/>
<path fill="#08211E" opacity="1.000000" stroke="none" 
	d="
M95.099625,71.477501 
	C103.290298,71.298027 111.247055,71.298027 119.203804,71.298027 
	C119.187889,71.417679 119.171974,71.537323 119.156059,71.656975 
	C111.059280,71.656975 102.962494,71.656975 95.099625,71.477501 
z"/>
<path fill="#093B35" opacity="1.000000" stroke="none" 
	d="
M113.938530,51.365398 
	C117.943123,55.463089 114.443687,58.359642 111.571785,61.310886 
	C115.448105,64.085571 116.417732,63.509502 118.728287,57.189835 
	C118.089516,59.378510 117.677490,62.277676 116.039825,64.033997 
	C115.306442,64.820511 111.584869,63.933727 110.161926,62.710140 
	C107.878326,60.746471 110.454735,59.854851 111.724342,58.355000 
	C113.104317,56.724751 113.209717,54.015598 113.938530,51.365398 
z"/>
<path fill="#093B35" opacity="1.000000" stroke="none" 
	d="
M67.730812,45.189167 
	C67.730812,45.189167 67.908310,45.615391 68.048943,45.798500 
	C66.678246,49.621895 65.166908,53.262177 63.310356,56.948395 
	C62.718815,54.767967 62.472492,52.541595 62.172768,49.675690 
	C63.069881,47.680214 64.020393,46.324272 65.325256,44.973293 
	C66.151962,44.980206 66.624313,44.982159 67.257889,45.027054 
	C67.419121,45.070004 67.730812,45.189167 67.730812,45.189167 
z"/>
<path fill="#06110F" opacity="1.000000" stroke="none" 
	d="
M148.112762,88.824471 
	C147.156464,87.274666 146.566605,85.730652 145.976746,84.186646 
	C147.423187,84.194786 148.869629,84.202919 150.316071,84.211052 
	C149.703781,85.750793 149.091492,87.290535 148.112762,88.824471 
z"/>
<path fill="#093B35" opacity="1.000000" stroke="none" 
	d="
M47.414177,74.472412 
	C47.818871,72.970566 48.134102,71.750565 48.449329,70.530571 
	C48.789993,70.537033 49.130657,70.543495 49.471321,70.549957 
	C49.471321,71.837639 49.310211,73.160500 49.578518,74.389610 
	C49.650425,74.719009 51.031841,74.762550 51.998474,74.717041 
	C51.293530,75.623543 50.402210,76.750320 49.510887,77.877106 
	C48.782162,76.836151 48.053436,75.795204 47.414177,74.472412 
z"/>
<path fill="#091714" opacity="1.000000" stroke="none" 
	d="
M59.560234,82.246750 
	C58.622826,82.468529 58.047821,82.597809 57.472816,82.727097 
	C57.343624,82.315422 57.214432,81.903748 57.085239,81.492073 
	C62.093681,79.748421 67.102127,78.004768 72.110565,76.261116 
	C72.296883,76.778496 72.483200,77.295876 72.669525,77.813255 
	C68.420563,79.260262 64.171600,80.707260 59.560234,82.246750 
z"/>
<path fill="#06110F" opacity="1.000000" stroke="none" 
	d="
M120.984177,75.835442 
	C121.575333,77.519135 121.785202,79.125069 121.995071,80.731010 
	C120.572609,80.377083 119.150154,80.023148 117.727692,79.669212 
	C118.686089,78.365372 119.644485,77.061531 120.984177,75.835442 
z"/>
<path fill="#093B35" opacity="1.000000" stroke="none" 
	d="
M69.248596,67.909988 
	C68.187813,67.505981 67.478287,66.791969 66.626686,66.515381 
	C61.679527,64.908577 60.474388,62.377235 62.670517,57.121647 
	C63.079216,60.875999 62.463142,65.242699 68.598175,65.069229 
	C68.884201,65.061134 69.221039,66.850037 69.248596,67.909988 
z"/>
<path fill="#06110F" opacity="1.000000" stroke="none" 
	d="
M63.716408,83.455093 
	C64.562302,85.004921 65.060898,86.552803 65.559502,88.100677 
	C64.237816,88.050179 62.916126,87.999687 61.594437,87.949196 
	C62.185997,86.450508 62.777561,84.951828 63.716408,83.455093 
z"/>
<path fill="#091714" opacity="1.000000" stroke="none" 
	d="
M73.169334,66.669769 
	C74.880455,67.287735 76.531441,68.208115 79.518692,69.873421 
	C76.146675,70.836586 74.347374,71.350533 71.845299,72.065216 
	C72.373543,69.936607 72.741379,68.454399 73.169334,66.669769 
z"/>
<path fill="#093B35" opacity="1.000000" stroke="none" 
	d="
M86.331375,57.330772 
	C86.236366,58.297073 86.011093,59.271038 86.067406,60.228436 
	C86.444206,66.634613 84.041916,68.342209 77.896721,65.502945 
	C78.021729,64.924164 78.184341,64.795776 78.655457,64.829437 
	C83.527809,66.175446 84.628227,65.345711 84.597847,61.128361 
	C84.586937,59.614849 85.183044,58.096970 85.709435,56.768501 
	C86.054970,57.080875 86.193176,57.205826 86.331375,57.330772 
z"/>
<path fill="#093B35" opacity="1.000000" stroke="none" 
	d="
M147.988922,58.436302 
	C148.137177,58.036530 148.344620,58.027130 148.863495,58.009079 
	C151.219223,63.557907 147.317963,65.512360 143.233337,67.751541 
	C143.314301,67.010269 143.419739,65.210144 143.902328,65.102608 
	C147.442688,64.313744 147.984879,61.778061 147.988922,58.436302 
z"/>
<path fill="#093B35" opacity="1.000000" stroke="none" 
	d="
M158.851471,66.278900 
	C159.055038,68.700981 159.100937,71.455208 159.091934,74.609360 
	C158.922623,72.209869 158.808212,69.410454 158.851471,66.278900 
z"/>
<path fill="#093B35" opacity="1.000000" stroke="none" 
	d="
M132.596252,65.383469 
	C132.285339,64.003113 132.072922,62.818909 131.909332,61.314354 
	C132.993851,62.094738 134.029572,63.195484 135.065292,64.296227 
	C134.275116,64.724030 133.484924,65.151833 132.596252,65.383469 
z"/>
<path fill="#093B35" opacity="1.000000" stroke="none" 
	d="
M98.334251,52.347237 
	C98.257393,53.886024 98.180527,55.424816 97.970413,57.587532 
	C97.695641,58.373737 97.554131,58.536015 97.221107,58.395393 
	C97.194618,55.875011 97.359642,53.657520 97.727036,51.666847 
	C98.064362,52.044857 98.199310,52.196049 98.334251,52.347237 
z"/>
<path fill="#093B35" opacity="1.000000" stroke="none" 
	d="
M144.123199,69.302727 
	C146.055176,68.934814 148.105316,68.905663 150.595566,68.919464 
	C148.987885,71.359650 146.728485,71.639862 144.123199,69.302727 
z"/>
<path fill="#093B35" opacity="1.000000" stroke="none" 
	d="
M101.271591,63.244160 
	C98.649284,65.351334 96.120277,65.232903 93.721115,62.500927 
	C93.930244,61.979046 94.101280,61.882282 94.583313,61.962318 
	C96.720222,62.229313 98.546135,62.319496 100.596939,62.618301 
	C100.971748,62.966003 101.121666,63.105083 101.271591,63.244160 
z"/>
<path fill="#093B35" opacity="1.000000" stroke="none" 
	d="
M160.147797,76.265259 
	C161.320328,75.569672 162.632767,75.174835 164.256470,74.539589 
	C164.567734,74.299179 164.984207,74.520203 164.984207,74.520203 
	C164.984207,74.520203 165.051178,74.770294 165.128174,74.874603 
	C164.404633,78.106308 162.624985,78.200012 160.147797,76.265259 
z"/>
<path fill="#093B35" opacity="1.000000" stroke="none" 
	d="
M73.067215,44.197754 
	C73.226303,43.872265 73.681335,43.936901 73.889648,44.388420 
	C73.843674,46.813488 73.589378,48.787037 73.098679,50.964481 
	C72.705742,51.305546 72.549202,51.442707 72.392670,51.579872 
	C72.251961,50.625381 72.111252,49.670891 71.935257,48.354317 
	C72.236015,46.835907 72.572067,45.679577 73.067215,44.197754 
z"/>
<path fill="#093B35" opacity="1.000000" stroke="none" 
	d="
M61.157822,69.293427 
	C63.102970,69.000481 65.211884,69.035187 67.673691,69.013985 
	C66.079384,72.089622 63.750298,71.359154 61.157822,69.293427 
z"/>
<path fill="#093B35" opacity="1.000000" stroke="none" 
	d="
M91.678772,57.287514 
	C90.089165,57.218334 88.499557,57.149155 86.620667,57.205376 
	C86.193176,57.205826 86.054970,57.080875 85.956650,56.503956 
	C88.185341,56.180862 90.374146,56.309731 92.341904,56.650841 
	C91.973511,57.004555 91.826141,57.146034 91.678772,57.287514 
z"/>
<path fill="#093B35" opacity="1.000000" stroke="none" 
	d="
M54.321037,65.144760 
	C55.600147,65.112137 57.215595,65.224846 58.928474,65.658844 
	C57.569733,65.750122 56.113556,65.520103 54.321037,65.144760 
z"/>
<path fill="#093B35" opacity="1.000000" stroke="none" 
	d="
M99.319603,58.661552 
	C101.623322,59.163532 104.068794,59.582439 101.507370,63.020706 
	C101.121666,63.105083 100.971748,62.966003 100.673187,62.352661 
	C99.823914,61.113407 99.123276,60.348412 98.646904,59.352974 
	C99.020653,58.968868 99.170128,58.815212 99.319603,58.661552 
z"/>
<path fill="#093B35" opacity="1.000000" stroke="none" 
	d="
M78.327400,61.486526 
	C78.462044,60.008568 78.596680,58.530609 78.929718,56.483917 
	C79.303658,55.785168 79.479195,55.655155 79.801941,55.826790 
	C79.733292,58.188450 79.517441,60.248466 79.058830,62.102066 
	C78.653175,61.759266 78.490288,61.622894 78.327400,61.486526 
z"/>
<path fill="#093B35" opacity="1.000000" stroke="none" 
	d="
M132.047638,60.641052 
	C132.129211,58.811924 132.272644,56.585526 132.713165,54.150063 
	C132.709991,56.041927 132.409760,58.142853 132.047638,60.641052 
z"/>
<path fill="#093B35" opacity="1.000000" stroke="none" 
	d="
M93.499512,62.215233 
	C92.777390,60.884876 92.314964,59.415100 91.765656,57.616417 
	C91.826141,57.146034 91.973511,57.004555 92.541634,56.941078 
	C93.399033,58.607895 93.835670,60.196705 94.272308,61.785515 
	C94.101280,61.882282 93.930244,61.979046 93.499512,62.215233 
z"/>
<path fill="#093B35" opacity="1.000000" stroke="none" 
	d="
M133.317429,54.096390 
	C134.460815,53.691616 135.980667,53.377415 137.501205,53.340973 
	C136.232559,53.808147 134.963226,53.997559 133.317429,54.096390 
z"/>
<path fill="#093B35" opacity="1.000000" stroke="none" 
	d="
M125.867508,57.274902 
	C126.329659,58.658600 126.653419,60.373234 126.961166,62.480873 
	C126.539818,61.117863 126.134468,59.361855 125.867508,57.274902 
z"/>
<path fill="#093B35" opacity="1.000000" stroke="none" 
	d="
M153.398285,65.016205 
	C154.559311,64.799095 156.141922,64.626274 157.882202,64.720871 
	C156.633194,65.012360 155.226517,65.036430 153.398285,65.016205 
z"/>
<path fill="#093B35" opacity="1.000000" stroke="none" 
	d="
M77.418396,54.759598 
	C76.443466,54.526203 75.468536,54.292809 74.113480,54.082397 
	C73.733345,54.105381 73.812485,54.022877 73.782822,54.069672 
	C73.408470,53.430668 73.063782,52.744862 72.555885,51.819466 
	C72.549202,51.442707 72.705742,51.305546 73.348923,51.162056 
	C75.300613,52.031868 76.765640,52.908005 78.026199,54.026836 
	C77.687286,54.432888 77.552841,54.596241 77.418396,54.759598 
z"/>
<path fill="#093B35" opacity="1.000000" stroke="none" 
	d="
M120.365433,56.096897 
	C121.491768,55.813614 123.036674,55.629124 124.817749,55.721138 
	C123.630615,56.063660 122.207306,56.129677 120.365433,56.096897 
z"/>
<path fill="#093B35" opacity="1.000000" stroke="none" 
	d="
M59.049149,66.291756 
	C59.717529,66.754791 60.417866,67.537407 61.076553,68.661652 
	C60.383636,68.205971 59.732372,67.408653 59.049149,66.291756 
z"/>
<path fill="#093B35" opacity="1.000000" stroke="none" 
	d="
M109.984238,48.338741 
	C110.921341,48.474289 111.809662,48.974789 112.874329,49.735332 
	C112.246094,50.046894 111.441536,50.098412 110.229164,50.153442 
	C109.821358,50.156952 109.912476,50.082142 109.864212,50.126278 
	C109.855789,49.681507 109.895630,49.192600 109.984238,48.338741 
z"/>
<path fill="#093B35" opacity="1.000000" stroke="none" 
	d="
M151.213150,68.806725 
	C151.108780,68.142670 151.247513,67.244301 151.684235,66.157463 
	C151.806900,66.836807 151.631577,67.704613 151.213150,68.806725 
z"/>
<path fill="#093B35" opacity="1.000000" stroke="none" 
	d="
M102.355301,48.333500 
	C102.081161,48.811123 101.807022,49.288742 101.089195,49.713684 
	C100.498581,49.516621 100.351654,49.372242 100.357872,49.006844 
	C100.849670,48.369232 101.188324,47.952641 101.734032,47.735443 
	C102.079155,48.067722 102.217232,48.200611 102.355301,48.333500 
z"/>
<path fill="#093B35" opacity="1.000000" stroke="none" 
	d="
M100.865677,49.877804 
	C100.668556,50.438557 100.251266,50.782509 99.377609,51.022926 
	C98.781395,50.772293 98.641548,50.625198 98.696449,50.298607 
	C99.329041,49.822033 99.766884,49.524948 100.204727,49.227867 
	C100.351654,49.372242 100.498581,49.516621 100.865677,49.877804 
z"/>
<path fill="#093B35" opacity="1.000000" stroke="none" 
	d="
M77.612831,65.242081 
	C77.263489,64.557549 77.160439,63.683487 77.470627,62.776817 
	C78.016815,62.905098 78.149750,63.065987 78.285522,63.467247 
	C78.308670,64.027489 78.328194,64.347412 78.346947,64.667381 
	C78.184341,64.795776 78.021729,64.924164 77.612831,65.242081 
z"/>
<path fill="#093B35" opacity="1.000000" stroke="none" 
	d="
M78.864700,56.110069 
	C78.304337,55.917336 78.007370,55.529709 77.564400,54.950840 
	C77.552841,54.596241 77.687286,54.432888 78.260330,54.190895 
	C79.017540,54.583225 79.336136,55.054184 79.654739,55.525146 
	C79.479195,55.655155 79.303658,55.785168 78.864700,56.110069 
z"/>
<path fill="#093B35" opacity="1.000000" stroke="none" 
	d="
M152.221558,65.927376 
	C152.125717,65.686836 152.286972,65.380836 152.714325,65.023468 
	C152.813187,65.268715 152.645920,65.565315 152.221558,65.927376 
z"/>
<path fill="#093B35" opacity="1.000000" stroke="none" 
	d="
M98.049438,57.968052 
	C98.541710,57.877796 98.793694,58.068050 99.168633,58.478477 
	C99.170128,58.815212 99.020653,58.968868 98.467239,59.218758 
	C97.830002,59.126736 97.613098,58.921169 97.412613,58.698288 
	C97.554131,58.536015 97.695641,58.373737 98.049438,57.968052 
z"/>
<path fill="#093B35" opacity="1.000000" stroke="none" 
	d="
M77.687881,62.500088 
	C77.664780,62.071228 77.846825,61.896015 78.182716,61.608429 
	C78.490288,61.622894 78.653175,61.759266 78.923592,62.290554 
	C78.816307,62.913868 78.566826,63.094337 78.282684,63.226875 
	C78.149750,63.065987 78.016815,62.905098 77.687881,62.500088 
z"/>
<path fill="#093B35" opacity="1.000000" stroke="none" 
	d="
M125.039337,56.227386 
	C125.266106,56.146675 125.551552,56.343349 125.944489,56.781723 
	C125.734001,56.850544 125.416008,56.677658 125.039337,56.227386 
z"/>
<path fill="#093B35" opacity="1.000000" stroke="none" 
	d="
M119.228081,56.965950 
	C119.139915,56.730125 119.330856,56.438419 119.770218,56.048382 
	C119.848160,56.270054 119.677673,56.590061 119.228081,56.965950 
z"/>
<path fill="#093B35" opacity="1.000000" stroke="none" 
	d="
M158.040985,65.242813 
	C158.293198,65.144638 158.586670,65.330009 158.965317,65.768997 
	C158.727753,65.857193 158.404999,65.691772 158.040985,65.242813 
z"/>
<path fill="#093B35" opacity="1.000000" stroke="none" 
	d="
M103.133446,47.135860 
	C103.184639,47.584988 102.976799,47.827316 102.545242,48.187088 
	C102.217232,48.200611 102.079155,48.067722 101.866455,47.558304 
	C101.986038,46.956814 102.207962,46.763702 102.457603,46.602440 
	C102.607796,46.720970 102.757988,46.839500 103.133446,47.135860 
z"/>
<path fill="#093B35" opacity="1.000000" stroke="none" 
	d="
M113.026016,50.233292 
	C113.282700,50.131287 113.582588,50.312656 113.964478,50.751560 
	C113.720726,50.844952 113.394974,50.680809 113.026016,50.233292 
z"/>
<path fill="#010101" opacity="1.000000" stroke="none" 
	d="
M53.847626,83.835892 
	C54.075050,83.536682 54.495052,83.428856 54.915047,83.321022 
	C54.917507,83.570778 54.919964,83.820526 54.674191,84.239868 
	C54.297379,84.282066 54.168793,84.154671 53.847626,83.835892 
z"/>
<path fill="#093B35" opacity="1.000000" stroke="none" 
	d="
M99.130951,51.140106 
	C99.168999,51.628799 98.961121,51.864876 98.525635,52.208145 
	C98.199310,52.196049 98.064362,52.044857 97.868629,51.485893 
	C98.013153,50.848076 98.244438,50.648067 98.501701,50.478100 
	C98.641548,50.625198 98.781395,50.772293 99.130951,51.140106 
z"/>
<path fill="#093B35" opacity="1.000000" stroke="none" 
	d="
M159.071594,75.217079 
	C159.309174,75.123398 159.618546,75.285210 159.979462,75.716202 
	C159.735138,75.814438 159.439240,75.643501 159.071594,75.217079 
z"/>
<path fill="#093B35" opacity="1.000000" stroke="none" 
	d="
M68.226593,68.962524 
	C68.142502,68.731407 68.331116,68.441498 68.765656,68.055450 
	C68.840820,68.274117 68.670059,68.588921 68.226593,68.962524 
z"/>
<path fill="#093B35" opacity="1.000000" stroke="none" 
	d="
M143.045380,68.227158 
	C143.286148,68.129700 143.583160,68.303398 143.956879,68.732765 
	C143.722946,68.825066 143.412277,68.661690 143.045380,68.227158 
z"/>
<path fill="#030706" opacity="1.000000" stroke="none" 
	d="
M150.524780,49.460739 
	C149.726013,46.014034 145.728378,43.147438 149.012497,39.065285 
	C157.644775,42.312523 162.649048,47.537868 163.423141,53.800426 
	C159.198212,52.368813 155.055466,50.965050 150.524780,49.460739 
z"/>
<path fill="#027C71" opacity="1.000000" stroke="none" 
	d="
M164.957428,66.972008 
	C165.287735,65.734901 165.618042,64.497795 165.948349,63.260693 
	C166.432007,63.465900 166.915665,63.671112 167.399323,63.876320 
	C166.785843,64.831696 166.172363,65.787071 165.278076,66.875420 
	C164.997269,67.008392 164.957443,66.972008 164.957428,66.972008 
z"/>
<path fill="#027C71" opacity="1.000000" stroke="none" 
	d="
M139.118988,51.694283 
	C138.656006,50.175636 138.313858,48.335068 137.991760,46.203796 
	C138.421143,47.732853 138.830475,49.552608 139.118988,51.694283 
z"/>
<path fill="#010101" opacity="1.000000" stroke="none" 
	d="
M154.092331,37.592476 
	C154.780823,36.912403 155.726471,36.354137 156.888016,35.927227 
	C156.185776,36.610481 155.267624,37.162384 154.092331,37.592476 
z"/>
<path fill="#027C71" opacity="1.000000" stroke="none" 
	d="
M165.016571,67.027206 
	C164.662659,67.562531 164.289444,68.079033 163.916214,68.595535 
	C163.772049,68.467064 163.627869,68.338585 163.483688,68.210114 
	C163.858627,67.868095 164.233551,67.526085 164.782959,67.078033 
	C164.957443,66.972008 164.997269,67.008392 165.016571,67.027206 
z"/>
<path fill="#027C71" opacity="1.000000" stroke="none" 
	d="
M143.679855,47.133865 
	C143.921967,47.440361 144.055191,47.888176 144.245789,48.683254 
	C144.059113,48.445408 143.815033,47.860298 143.679855,47.133865 
z"/>
<path fill="#027C71" opacity="1.000000" stroke="none" 
	d="
M165.037598,58.977257 
	C165.051834,58.995625 165.023361,58.958893 165.037598,58.977257 
z"/>
<path fill="#027C71" opacity="1.000000" stroke="none" 
	d="
M164.890198,74.396339 
	C164.984207,74.520203 164.567734,74.299179 164.359314,74.190109 
	C164.365997,74.144844 164.581085,74.208656 164.890198,74.396339 
z"/>
<path fill="#027C71" opacity="1.000000" stroke="none" 
	d="
M165.501923,55.994377 
	C165.513977,56.007065 165.489853,55.981686 165.501923,55.994377 
z"/>
<path fill="#030706" opacity="1.000000" stroke="none" 
	d="
M64.970909,44.968334 
	C64.020393,46.324272 63.069881,47.680214 62.044067,49.341484 
	C57.794579,50.733856 53.620388,51.820896 47.840012,53.326221 
	C50.287220,49.760723 52.044655,47.200199 53.977428,44.350876 
	C55.979195,42.887360 57.805626,41.712643 59.867134,40.307625 
	C61.173996,39.714306 62.245781,39.351288 63.707428,39.338776 
	C64.388496,41.448963 64.679703,43.208649 64.970909,44.968334 
z"/>
<path fill="#027C71" opacity="1.000000" stroke="none" 
	d="
M48.948936,54.893734 
	C48.574085,56.349686 48.199234,57.805641 47.824387,59.261593 
	C47.371536,59.150883 46.918686,59.040176 46.465839,58.929466 
	C46.853897,57.813370 47.241955,56.697277 48.048050,55.279621 
	C48.466095,54.978058 48.948936,54.893734 48.948936,54.893734 
z"/>
<path fill="#027C71" opacity="1.000000" stroke="none" 
	d="
M45.017960,66.016418 
	C45.575905,65.784813 46.142399,65.737289 46.708889,65.689774 
	C46.624130,66.097252 46.539375,66.504723 46.454620,66.912201 
	C45.978580,66.674965 45.502544,66.437737 45.017960,66.016418 
z"/>
<path fill="#030706" opacity="1.000000" stroke="none" 
	d="
M48.914181,54.671909 
	C48.948936,54.893734 48.466095,54.978058 48.229431,55.041725 
	C48.075447,54.742592 48.158127,54.379795 48.240803,54.016998 
	C48.453678,54.161358 48.666550,54.305721 48.914181,54.671909 
z"/>
<path fill="#091714" opacity="1.000000" stroke="none" 
	d="
M65.325256,44.973293 
	C64.679703,43.208649 64.388496,41.448963 64.047409,39.308876 
	C64.783333,38.822624 65.570168,38.623287 66.354729,38.631866 
	C67.675285,38.646305 68.994400,38.792763 70.314117,38.883690 
	C70.040733,40.277988 69.767342,41.672283 68.999161,43.302551 
	C68.035141,44.020386 67.565903,44.502247 67.096664,44.984108 
	C66.624313,44.982159 66.151962,44.980206 65.325256,44.973293 
z"/>
<path fill="#027C71" opacity="1.000000" stroke="none" 
	d="
M75.996483,27.592228 
	C76.468407,27.619141 76.982010,27.869862 77.758949,28.233932 
	C77.697701,28.673599 77.373116,28.999912 77.048531,29.326221 
	C76.711739,28.822826 76.374954,28.319431 75.996483,27.592228 
z"/>
<path fill="#027C71" opacity="1.000000" stroke="none" 
	d="
M83.140579,24.249706 
	C83.577209,24.331810 84.134979,24.560566 84.815315,24.936695 
	C84.379158,24.854832 83.820435,24.625595 83.140579,24.249706 
z"/>
<path fill="#027C71" opacity="1.000000" stroke="none" 
	d="
M67.257889,45.027054 
	C67.565903,44.502247 68.035141,44.020386 68.761398,43.492828 
	C68.702530,43.886177 68.386635,44.325222 67.900772,44.976715 
	C67.730812,45.189167 67.419121,45.070004 67.257889,45.027054 
z"/>
<path fill="#008277" opacity="1.000000" stroke="none" 
	d="
M188.064072,234.621460 
	C178.822922,251.733932 166.264496,265.260040 149.245560,274.941162 
	C144.752472,271.330200 140.407532,267.615875 136.326614,263.631165 
	C130.906540,258.338867 125.692398,252.835663 120.139587,246.844971 
	C119.610840,245.520065 119.332268,244.773254 119.053703,244.026459 
	C116.400497,243.810699 113.747292,243.594940 110.304214,243.208435 
	C106.981476,243.087448 104.448616,243.137222 101.915749,243.186981 
	C80.892357,242.103806 62.004379,225.238144 57.972572,203.206238 
	C57.832573,201.372742 57.596848,200.196304 57.361122,199.019852 
	C57.219219,198.273026 57.077320,197.526184 56.901489,196.137939 
	C56.809811,195.328705 56.752064,195.160889 56.694321,194.993073 
	C56.783218,193.285675 56.872116,191.578293 57.052303,189.259750 
	C57.130199,188.083252 57.116810,187.517883 57.103416,186.952530 
	C57.197849,186.330399 57.292286,185.708267 57.569771,184.446930 
	C60.418304,172.175217 65.917221,162.332428 75.486694,154.876587 
	C78.391808,157.423630 80.931618,159.650406 83.695358,162.073502 
	C75.944855,169.055756 70.195618,176.205231 68.809830,186.394440 
	C66.168884,207.214752 76.520302,224.254929 95.091461,229.908295 
	C107.352097,233.366714 118.526146,231.827713 128.566605,224.363770 
	C131.106598,222.475571 132.870117,222.455612 134.848846,224.890305 
	C136.284637,226.656952 137.930176,228.253128 140.221695,230.722061 
	C134.128250,234.569305 128.576706,238.074402 123.025169,241.579498 
	C123.246880,241.989807 123.468597,242.400116 123.690315,242.810425 
	C127.276917,240.988083 131.036926,239.438721 134.417114,237.291443 
	C143.997452,231.205536 143.938599,231.087494 136.226303,223.167526 
	C135.761734,222.690430 135.259552,222.237625 134.865433,221.706329 
	C133.091812,219.315247 131.559433,219.789688 129.031998,221.159698 
	C123.414551,224.204636 117.455315,226.662033 111.504768,229.030731 
	C108.646614,230.168472 107.382294,228.676270 107.222710,225.549026 
	C107.020554,221.587631 108.858681,220.517044 112.322395,220.958054 
	C116.064842,221.434540 117.496101,219.739792 117.117119,216.086975 
	C116.809593,213.122833 117.445572,209.750320 116.189240,207.321198 
	C115.524155,206.035233 111.659874,206.567627 109.356468,205.885437 
	C108.422325,205.608765 107.798500,204.284317 107.033470,203.436630 
	C107.909126,202.683456 108.708450,201.424286 109.675713,201.278397 
	C111.959160,200.933914 114.357262,201.346893 116.639572,200.998627 
	C117.856422,200.812912 119.906303,199.680603 119.905350,198.977814 
	C119.899895,194.946960 119.392265,190.916794 118.657288,186.780823 
	C111.276863,186.635437 104.288673,186.747742 97.313675,186.495514 
	C93.476196,186.356705 91.951706,187.592407 92.095947,191.596420 
	C92.353218,198.737595 92.186768,205.894897 92.146935,213.045181 
	C92.138588,214.544327 91.911446,216.042252 91.649910,219.144684 
	C85.308884,212.631088 80.313171,207.059021 74.827843,202.019928 
	C71.183319,198.671875 69.415710,195.024292 70.139717,190.038788 
	C70.300179,189.690384 70.282631,189.484695 70.308151,188.894745 
	C70.539162,187.681381 70.634407,186.860229 70.878357,185.694550 
	C74.454124,179.366226 77.700066,173.267899 81.381691,167.445007 
	C83.337906,164.351028 85.774498,164.212738 88.561378,167.274094 
	C93.260834,172.436386 98.433060,177.165085 103.287422,182.191101 
	C105.207100,184.178680 106.698776,184.324539 108.634544,182.232224 
	C113.034760,177.476166 117.572136,172.847000 122.392105,168.169403 
	C126.695793,171.896332 130.788986,175.494247 134.602005,179.367950 
	C145.170792,190.104874 155.622849,200.956711 165.978729,212.059174 
	C162.009033,224.196777 155.454010,234.209579 145.911819,242.254150 
	C145.071823,242.962311 144.030472,244.051910 143.998367,244.995499 
	C143.815063,250.382217 143.909378,255.778381 143.909378,261.337708 
	C145.112900,261.196625 145.656647,261.271057 146.047592,261.061035 
	C147.215179,260.433777 148.365585,259.755432 149.447449,258.990570 
	C160.931198,250.871780 169.946808,240.636185 176.289474,228.026886 
	C176.970062,226.673859 178.787262,225.892578 180.077194,224.846069 
	C182.742966,227.984970 185.408752,231.123856 188.064072,234.621460 
M119.482307,241.518036 
	C119.482307,241.518036 119.513512,241.514664 119.482307,241.518036 
z"/>
<path fill="#008277" opacity="1.000000" stroke="none" 
	d="
M45.043972,173.040421 
	C37.297218,198.597549 42.542126,221.297897 61.378601,240.059738 
	C67.051163,245.709839 66.351532,251.099014 65.911911,257.623627 
	C40.482208,244.226547 19.151766,202.860336 37.894947,161.369705 
	C44.003262,149.059158 52.071980,139.309097 62.600582,131.508026 
	C66.174744,128.859787 68.672554,128.610733 71.828674,132.190994 
	C75.555542,136.418686 79.912575,140.090881 84.173012,144.285583 
	C90.801643,150.937393 97.215416,157.347351 103.753082,163.628357 
	C104.590675,164.433075 106.072968,164.566757 107.523994,164.840851 
	C108.851425,162.807114 109.911461,160.943832 111.339630,159.070251 
	C113.811737,159.066437 115.915718,159.072922 118.255768,159.302414 
	C120.024681,161.091293 121.557533,162.657150 122.989876,164.459351 
	C122.597435,165.113266 122.305504,165.530869 121.714523,166.102386 
	C116.509666,171.360352 111.603844,176.464371 106.448677,181.827820 
	C104.594543,180.114075 103.368050,179.058228 102.229057,177.915207 
	C94.277657,169.935623 86.402557,161.878494 78.350777,154.001846 
	C76.927032,152.609070 74.790527,151.944901 72.847023,150.691925 
	C71.227531,148.291336 69.744186,146.143082 68.005447,143.723785 
	C66.299492,143.810394 64.442940,143.715775 63.461899,144.596451 
	C54.773758,152.395676 48.194889,161.625565 45.043972,173.040421 
z"/>
<path fill="#008277" opacity="1.000000" stroke="none" 
	d="
M26.007629,151.386108 
	C32.789810,139.714447 40.331173,128.979111 51.131779,121.107574 
	C55.921440,117.616837 61.236317,114.846741 66.692184,111.741249 
	C76.950623,121.622780 86.829666,131.512589 96.490318,141.804413 
	C92.607285,142.477264 89.146919,146.268173 85.091415,142.557037 
	C80.190628,137.589325 75.600594,132.759033 70.644371,128.339355 
	C69.455872,127.279518 66.479759,126.666138 65.291084,127.403519 
	C52.117996,135.575256 41.955334,146.490738 36.026848,161.026672 
	C32.685230,157.931046 29.343609,154.835419 26.007629,151.386108 
z"/>
<path fill="#008075" opacity="1.000000" stroke="none" 
	d="
M68.260841,143.994827 
	C69.744186,146.143082 71.227531,148.291336 72.904861,151.077957 
	C72.508171,152.944626 72.207832,154.481842 71.281204,155.352615 
	C63.432781,162.728012 58.355309,171.635590 56.009079,182.125488 
	C53.163116,179.587189 50.317154,177.048874 47.323517,173.907211 
	C51.145054,161.333435 57.626713,151.170486 68.260841,143.994827 
z"/>
<path fill="#091714" opacity="1.000000" stroke="none" 
	d="
M56.174561,182.418076 
	C58.355309,171.635590 63.432781,162.728012 71.281204,155.352615 
	C72.207832,154.481842 72.508171,152.944626 73.041000,151.330292 
	C74.790527,151.944901 76.927032,152.609070 78.350777,154.001846 
	C86.402557,161.878494 94.277657,169.935623 102.229057,177.915207 
	C103.368050,179.058228 104.594543,180.114075 106.448677,181.827820 
	C111.603844,176.464371 116.509666,171.360352 121.723923,166.472412 
	C122.039497,167.181076 122.046623,167.673660 122.053749,168.166245 
	C117.572136,172.847000 113.034760,177.476166 108.634544,182.232224 
	C106.698776,184.324539 105.207100,184.178680 103.287422,182.191101 
	C98.433060,177.165085 93.260834,172.436386 88.561378,167.274094 
	C85.774498,164.212738 83.337906,164.351028 81.381691,167.445007 
	C77.700066,173.267899 74.454124,179.366226 70.578491,185.688782 
	C69.730110,186.019852 69.330276,186.012192 68.930450,186.004517 
	C70.195618,176.205231 75.944855,169.055756 83.695358,162.073502 
	C80.931618,159.650406 78.391808,157.423630 75.486694,154.876587 
	C65.917221,162.332428 60.418304,172.175217 57.556065,184.131195 
	C57.019554,183.873337 56.679802,183.292007 56.174561,182.418076 
z"/>
<path fill="#008075" opacity="1.000000" stroke="none" 
	d="
M103.697678,264.760834 
	C92.439850,265.033417 94.416801,265.739166 94.216034,255.956421 
	C94.141968,252.347122 94.204079,248.735031 94.204079,245.438477 
	C95.179230,245.003098 95.482048,244.744125 95.774673,244.755173 
	C105.314529,245.115524 105.414612,245.121002 105.262131,254.550919 
	C105.207542,257.927368 104.539635,261.293915 103.697678,264.760834 
z"/>
<path fill="#091714" opacity="1.000000" stroke="none" 
	d="
M36.474091,161.080338 
	C41.955334,146.490738 52.117996,135.575256 65.291084,127.403519 
	C66.479759,126.666138 69.455872,127.279518 70.644371,128.339355 
	C75.600594,132.759033 80.190628,137.589325 84.877373,142.747879 
	C84.558678,143.485764 84.277557,143.744827 83.996429,144.003891 
	C79.912575,140.090881 75.555542,136.418686 71.828674,132.190994 
	C68.672554,128.610733 66.174744,128.859787 62.600582,131.508026 
	C52.071980,139.309097 44.003262,149.059158 38.018349,161.001068 
	C37.517937,161.203079 37.219635,161.168533 36.474091,161.080338 
z"/>
<path fill="#091714" opacity="1.000000" stroke="none" 
	d="
M68.005447,143.723785 
	C57.626713,151.170486 51.145054,161.333435 47.101002,173.664948 
	C46.533051,173.774078 46.039936,173.522110 45.295395,173.155289 
	C48.194889,161.625565 54.773758,152.395676 63.461899,144.596451 
	C64.442940,143.715775 66.299492,143.810394 68.005447,143.723785 
z"/>
<path fill="#018176" opacity="1.000000" stroke="none" 
	d="
M102.255424,243.363327 
	C104.448616,243.137222 106.981476,243.087448 109.879105,243.204895 
	C107.694275,243.427948 105.144691,243.483810 102.255424,243.363327 
z"/>
<path fill="#018176" opacity="1.000000" stroke="none" 
	d="
M57.322765,199.362701 
	C57.596848,200.196304 57.832573,201.372742 57.962837,202.812042 
	C57.666389,201.951797 57.475399,200.828674 57.322765,199.362701 
z"/>
<path fill="#018176" opacity="1.000000" stroke="none" 
	d="
M118.841599,244.193512 
	C119.332268,244.773254 119.610840,245.520065 119.963882,246.556702 
	C119.568733,246.017883 119.099113,245.189240 118.841599,244.193512 
z"/>
<path fill="#091714" opacity="1.000000" stroke="none" 
	d="
M57.009830,187.144989 
	C57.116810,187.517883 57.130199,188.083252 57.029537,188.832855 
	C56.915737,188.457199 56.915989,187.897324 57.009830,187.144989 
z"/>
<path fill="#091714" opacity="1.000000" stroke="none" 
	d="
M56.656120,195.123184 
	C56.752064,195.160889 56.809811,195.328705 56.838245,195.761444 
	C56.654903,195.791428 56.591236,195.533737 56.656120,195.123184 
z"/>
<path fill="#018176" opacity="1.000000" stroke="none" 
	d="
M127.182190,145.897583 
	C131.087067,141.297165 134.840744,136.556824 138.935440,132.132065 
	C143.956848,126.705925 144.089752,126.806465 150.168991,131.110901 
	C175.649353,149.152390 189.824966,184.123337 177.494446,219.479462 
	C171.070053,235.832184 161.268387,248.515594 146.426514,258.109100 
	C145.791794,250.757828 145.365463,245.077026 151.409424,239.864731 
	C159.813095,232.617432 165.339752,222.986954 168.082748,211.583679 
	C168.714462,208.984863 169.454147,206.813339 169.789261,204.581070 
	C173.363541,180.773270 166.437714,160.660889 148.573792,144.369797 
	C146.407791,142.394485 144.757217,142.262207 142.718994,144.437119 
	C140.613129,146.684235 138.281921,148.720169 135.817200,150.611816 
	C132.784134,148.882614 129.983154,147.390106 127.182190,145.897583 
z"/>
<path fill="#008075" opacity="1.000000" stroke="none" 
	d="
M123.090378,164.223022 
	C121.557533,162.657150 120.024681,161.091293 118.273056,158.910248 
	C114.457657,154.056351 109.223267,154.399353 104.928162,155.187668 
	C97.088234,156.626602 94.156097,151.571976 90.141121,146.486954 
	C93.076797,145.512131 95.554588,144.689362 98.032387,143.866592 
	C107.311165,142.938278 116.437279,143.370544 125.832062,147.226013 
	C129.616119,149.411026 132.782135,151.286530 136.121445,153.450592 
	C137.632690,154.873749 138.970642,156.008362 140.687622,157.464401 
	C137.736206,160.236252 135.151077,162.664093 132.732483,164.935532 
	C129.912109,163.248825 127.587349,161.858505 125.398270,160.549347 
	C124.359512,162.202835 123.724945,163.212921 123.090378,164.223022 
z"/>
<path fill="#091714" opacity="1.000000" stroke="none" 
	d="
M168.002899,211.982773 
	C165.339752,222.986954 159.813095,232.617432 151.409424,239.864731 
	C145.365463,245.077026 145.791794,250.757828 146.426514,258.109100 
	C161.268387,248.515594 171.070053,235.832184 177.442780,219.856018 
	C178.404739,221.101303 179.148529,222.625122 179.984756,224.497498 
	C178.787262,225.892578 176.970062,226.673859 176.289474,228.026886 
	C169.946808,240.636185 160.931198,250.871780 149.447449,258.990570 
	C148.365585,259.755432 147.215179,260.433777 146.047592,261.061035 
	C145.656647,261.271057 145.112900,261.196625 143.909378,261.337708 
	C143.909378,255.778381 143.815063,250.382217 143.998367,244.995499 
	C144.030472,244.051910 145.071823,242.962311 145.911819,242.254150 
	C155.454010,234.209579 162.009033,224.196777 166.448853,212.117065 
	C167.375153,211.913544 167.689026,211.948151 168.002899,211.982773 
z"/>
<path fill="#06110F" opacity="1.000000" stroke="none" 
	d="
M97.920212,143.624664 
	C95.554588,144.689362 93.076797,145.512131 90.141121,146.486954 
	C94.156097,151.571976 97.088234,156.626602 104.928162,155.187668 
	C109.223267,154.399353 114.457657,154.056351 118.036995,158.687241 
	C115.915718,159.072922 113.811737,159.066437 111.209045,158.705078 
	C107.878204,157.856583 105.046059,157.362976 102.213913,156.869385 
	C102.076218,157.316193 101.938522,157.763016 101.800827,158.209824 
	C103.619415,160.476990 105.438011,162.744141 107.256599,165.011292 
	C106.072968,164.566757 104.590675,164.433075 103.753082,163.628357 
	C97.215416,157.347351 90.801643,150.937393 84.173019,144.285583 
	C84.277557,143.744827 84.558678,143.485764 85.053848,143.035858 
	C89.146919,146.268173 92.607285,142.477264 96.645599,142.099701 
	C97.282188,142.456238 97.545120,142.919479 97.920212,143.624664 
z"/>
<path fill="#091714" opacity="1.000000" stroke="none" 
	d="
M135.948151,153.162033 
	C132.782135,151.286530 129.616119,149.411026 126.201660,147.301666 
	C126.226318,146.807541 126.499413,146.547272 126.977356,146.092300 
	C129.983154,147.390106 132.784134,148.882614 135.797150,150.997040 
	C135.988846,152.133301 135.968491,152.647675 135.948151,153.162033 
z"/>
<path fill="#008378" opacity="1.000000" stroke="none" 
	d="
M98.696449,50.298607 
	C98.244438,50.648067 98.013153,50.848076 97.666260,51.259075 
	C97.359642,53.657520 97.194618,55.875011 97.221107,58.395393 
	C97.613098,58.921169 97.830002,59.126736 98.242981,59.449203 
	C99.123276,60.348412 99.823914,61.113407 100.448303,62.144043 
	C98.546135,62.319496 96.720222,62.229313 94.583313,61.962318 
	C93.835670,60.196705 93.399033,58.607895 92.762665,56.728844 
	C90.374146,56.309731 88.185341,56.180862 85.749329,56.316536 
	C85.183044,58.096970 84.586937,59.614849 84.597847,61.128361 
	C84.628227,65.345711 83.527809,66.175446 78.655457,64.829437 
	C78.328194,64.347412 78.308670,64.027489 78.285522,63.467247 
	C78.566826,63.094337 78.816307,62.913868 79.166351,62.496979 
	C79.517441,60.248466 79.733292,58.188450 79.801941,55.826790 
	C79.336136,55.054184 79.017540,54.583225 78.464806,53.948204 
	C76.765640,52.908005 75.300613,52.031868 73.585335,50.958157 
	C73.589378,48.787037 73.843674,46.813488 74.108673,44.457993 
	C82.311584,38.452057 91.549042,38.283554 101.391907,39.027191 
	C102.074936,41.372730 102.309944,43.627644 102.501282,46.242500 
	C102.207962,46.763702 101.986038,46.956814 101.659401,47.358913 
	C101.188324,47.952641 100.849670,48.369232 100.357872,49.006847 
	C99.766884,49.524948 99.329041,49.822033 98.696449,50.298607 
z"/>
<path fill="#093B35" opacity="1.000000" stroke="none" 
	d="
M109.732208,34.662136 
	C108.407921,34.464420 107.150368,34.110600 105.892822,33.756779 
	C105.968674,33.391235 106.044525,33.025692 106.120369,32.660149 
	C107.081169,32.771263 108.041962,32.882381 109.291191,33.116718 
	C109.652733,33.661972 109.725845,34.084000 109.732208,34.662136 
z"/>
<path fill="#091512" opacity="1.000000" stroke="none" 
	d="
M118.893135,38.066032 
	C118.285355,38.258629 117.499100,38.325932 116.317841,38.384506 
	C116.853447,38.230759 117.784050,38.085747 118.893135,38.066032 
z"/>
<path fill="#091512" opacity="1.000000" stroke="none" 
	d="
M122.981323,38.513470 
	C122.868332,38.627808 122.682571,38.655663 122.219467,38.633881 
	C122.264267,38.531826 122.586418,38.479408 122.981323,38.513470 
z"/>
<path fill="#091512" opacity="1.000000" stroke="none" 
	d="
M125.915047,38.920494 
	C125.849213,38.985752 125.671654,38.970802 125.249855,38.847187 
	C125.283051,38.681835 125.548950,38.715755 125.915047,38.920494 
z"/>
<path fill="#010202" opacity="1.000000" stroke="none" 
	d="
M136.121429,153.450592 
	C135.968491,152.647675 135.988846,152.133301 136.029236,151.233719 
	C138.281921,148.720169 140.613129,146.684235 142.718994,144.437119 
	C144.757217,142.262207 146.407791,142.394485 148.573792,144.369797 
	C166.437714,160.660889 173.363541,180.773270 169.789261,204.581070 
	C169.454147,206.813339 168.714462,208.984863 168.082748,211.583679 
	C167.689026,211.948151 167.375153,211.913544 166.591156,211.821045 
	C155.622849,200.956711 145.170792,190.104874 134.602005,179.367950 
	C130.788986,175.494247 126.695793,171.896332 122.392105,168.169403 
	C122.046623,167.673660 122.039497,167.181076 122.022964,166.318481 
	C122.305504,165.530869 122.597435,165.113266 122.989868,164.459351 
	C123.724945,163.212921 124.359512,162.202835 125.398270,160.549347 
	C127.587349,161.858505 129.912109,163.248825 132.732483,164.935532 
	C135.151077,162.664093 137.736206,160.236252 140.687622,157.464401 
	C138.970642,156.008362 137.632690,154.873749 136.121429,153.450592 
z"/>
<path fill="#030706" opacity="1.000000" stroke="none" 
	d="
M68.809830,186.394440 
	C69.330276,186.012192 69.730110,186.019852 70.429794,186.033295 
	C70.634407,186.860229 70.539162,187.681381 70.259521,189.036652 
	C70.029533,189.770355 70.022614,189.971283 70.054382,190.173553 
	C69.415710,195.024292 71.183319,198.671875 74.827843,202.019928 
	C80.313171,207.059021 85.308884,212.631088 91.649910,219.144684 
	C91.911446,216.042252 92.138588,214.544327 92.146935,213.045181 
	C92.186768,205.894897 92.353218,198.737595 92.095947,191.596420 
	C91.951706,187.592407 93.476196,186.356705 97.313675,186.495514 
	C104.288673,186.747742 111.276863,186.635437 118.528984,187.042953 
	C118.530136,187.929321 118.261856,188.448013 117.530991,188.891281 
	C110.933487,188.785278 104.792213,188.911957 98.666092,188.664185 
	C95.083794,188.519318 94.066307,189.984894 94.190186,193.334793 
	C94.386147,198.634048 94.140785,203.948257 94.262543,209.251999 
	C94.406166,215.507874 94.741814,221.759369 94.940750,228.443756 
	C94.852081,229.162109 94.816849,229.449493 94.781624,229.736862 
	C76.520302,224.254929 66.168884,207.214752 68.809830,186.394440 
z"/>
<path fill="#091512" opacity="1.000000" stroke="none" 
	d="
M117.993576,188.966705 
	C118.261856,188.448013 118.530136,187.929321 118.926727,187.148499 
	C119.392265,190.916794 119.899895,194.946960 119.905350,198.977814 
	C119.906303,199.680603 117.856422,200.812912 116.639572,200.998627 
	C114.357262,201.346893 111.959160,200.933914 109.675713,201.278397 
	C108.708450,201.424286 107.909126,202.683456 107.033470,203.436630 
	C107.798500,204.284317 108.422325,205.608765 109.356468,205.885437 
	C111.659874,206.567627 115.524155,206.035233 116.189240,207.321198 
	C117.445572,209.750320 116.809593,213.122833 117.117119,216.086975 
	C117.496101,219.739792 116.064842,221.434540 112.322395,220.958054 
	C108.858681,220.517044 107.020554,221.587631 107.222710,225.549026 
	C107.382294,228.676270 108.646614,230.168472 111.504768,229.030731 
	C117.455315,226.662033 123.414551,224.204636 129.031998,221.159698 
	C131.559433,219.789688 133.091812,219.315247 134.865433,221.706329 
	C135.259552,222.237625 135.761734,222.690430 136.226303,223.167526 
	C143.938599,231.087494 143.997452,231.205536 134.417114,237.291443 
	C131.036926,239.438721 127.276917,240.988083 123.690315,242.810425 
	C123.468597,242.400116 123.246880,241.989807 123.025169,241.579498 
	C128.576706,238.074402 134.128250,234.569305 140.221695,230.722061 
	C137.930176,228.253128 136.284637,226.656952 134.848846,224.890305 
	C132.870117,222.455612 131.106598,222.475571 128.566605,224.363770 
	C118.526146,231.827713 107.352097,233.366714 95.091461,229.908295 
	C94.816849,229.449493 94.852081,229.162109 95.356537,228.478607 
	C98.683914,228.540558 101.542076,228.998642 104.699677,229.504700 
	C104.917625,227.455444 105.300728,226.139603 105.147179,224.889725 
	C104.573669,220.221619 106.272903,218.067429 111.188499,218.599197 
	C112.230881,218.711960 113.950439,217.961670 114.416168,217.099960 
	C116.784035,212.718933 114.139198,208.186142 109.202354,208.237625 
	C105.874008,208.272324 104.430016,207.293106 104.460236,203.729568 
	C104.490585,200.150085 105.613289,198.789917 109.367218,198.809296 
	C117.984520,198.853806 117.985619,198.670425 118.004761,189.961823 
	C118.005493,189.630127 117.997498,189.298416 117.993576,188.966705 
z"/>
<path fill="#018176" opacity="1.000000" stroke="none" 
	d="
M119.497910,241.516357 
	C119.513512,241.514664 119.482307,241.518036 119.497910,241.516357 
z"/>
<path fill="#091714" opacity="1.000000" stroke="none" 
	d="
M70.139717,190.038788 
	C70.022614,189.971283 70.029533,189.770355 70.123764,189.428864 
	C70.282631,189.484695 70.300179,189.690384 70.139717,190.038788 
z"/>
<path fill="#027C71" opacity="1.000000" stroke="none" 
	d="
M107.523994,164.840836 
	C105.438011,162.744141 103.619415,160.476990 101.800827,158.209824 
	C101.938522,157.763016 102.076218,157.316193 102.213913,156.869385 
	C105.046059,157.362976 107.878204,157.856583 110.840927,158.715363 
	C109.911461,160.943832 108.851425,162.807114 107.523994,164.840836 
z"/>
<path fill="#008075" opacity="1.000000" stroke="none" 
	d="
M117.530991,188.891281 
	C117.997498,189.298416 118.005493,189.630127 118.004761,189.961823 
	C117.985619,198.670425 117.984520,198.853806 109.367218,198.809296 
	C105.613289,198.789917 104.490585,200.150085 104.460236,203.729568 
	C104.430016,207.293106 105.874008,208.272324 109.202354,208.237625 
	C114.139198,208.186142 116.784035,212.718933 114.416168,217.099960 
	C113.950439,217.961670 112.230881,218.711960 111.188499,218.599197 
	C106.272903,218.067429 104.573669,220.221619 105.147179,224.889725 
	C105.300728,226.139603 104.917625,227.455444 104.699677,229.504700 
	C101.542076,228.998642 98.683914,228.540558 95.409981,228.047623 
	C94.741814,221.759369 94.406166,215.507874 94.262543,209.251999 
	C94.140785,203.948257 94.386147,198.634048 94.190186,193.334793 
	C94.066307,189.984894 95.083794,188.519318 98.666092,188.664185 
	C104.792213,188.911957 110.933487,188.785278 117.530991,188.891281 
z"/>
</svg>